<svg width="70" height="13" viewBox="0 0 70 13" fill="none" xmlns="http://www.w3.org/2000/svg">
<path d="M1.72883 9.515C1.99883 9.755 2.29883 9.95 2.62883 10.13C2.94383 10.31 3.28883 10.475 3.64883 10.595C4.00883 10.73 4.38383 10.82 4.77383 10.88C5.14883 10.955 5.53883 10.985 5.92883 10.97C6.52883 10.97 7.02383 10.85 7.41383 10.625C7.78883 10.415 7.98383 10.055 7.98383 9.575C7.98383 9.035 7.78883 8.63 7.41383 8.345C7.02383 8.075 6.46883 7.865 5.73383 7.685C4.98383 7.535 4.32383 7.34 3.75383 7.115C3.16883 6.905 2.68883 6.635 2.29883 6.335C1.90883 6.035 1.60883 5.69 1.41383 5.285C1.20383 4.895 1.11383 4.43 1.11383 3.89C1.11383 3.32 1.23383 2.825 1.47383 2.405C1.71383 2 2.02883 1.655 2.44883 1.37C2.85383 1.1 3.31883 0.89 3.85883 0.74C4.38383 0.62 4.93883 0.545 5.53883 0.545C6.33383 0.545 7.09883 0.68 7.81883 0.919999C8.53883 1.19 9.25883 1.535 9.97883 1.985L9.09383 3.77C8.61383 3.425 8.05883 3.14 7.45883 2.9C6.84383 2.675 6.22883 2.555 5.62883 2.525C5.37383 2.525 5.11883 2.54 4.87883 2.57C4.60883 2.615 4.38383 2.69 4.18883 2.78C3.97883 2.885 3.79883 3.02 3.67883 3.185C3.54383 3.365 3.48383 3.575 3.48383 3.815C3.48383 4.04 3.51383 4.235 3.58883 4.385C3.64883 4.565 3.78383 4.715 3.96383 4.835C4.14383 4.985 4.38383 5.105 4.68383 5.225C4.98383 5.345 5.35883 5.465 5.83883 5.585C6.66383 5.81 7.36883 6.035 7.95383 6.275C8.52383 6.53 8.98883 6.8 9.34883 7.1C9.69383 7.415 9.94883 7.76 10.1138 8.15C10.2638 8.54 10.3538 9.005 10.3538 9.515C10.3538 10.085 10.2338 10.565 9.99383 10.985C9.75383 11.405 9.42383 11.765 9.01883 12.065C8.59883 12.35 8.11883 12.575 7.56383 12.725C6.99383 12.875 6.37883 12.95 5.74883 12.95C4.83383 12.95 3.96383 12.785 3.12383 12.485C2.26883 12.17 1.50383 11.78 0.813828 11.3L1.72883 9.515ZM19.1934 12.65L14.6034 7.265V12.65H12.2334V0.844999H14.6034V5.735L19.1484 0.844999H21.8634L16.6284 6.5L21.9084 12.65H19.1934ZM31.2566 12.65V6.605L25.7216 8.12V12.65H23.3516V0.844999H25.7216V6.32L31.2566 4.805V0.844999H33.6266V12.65H31.2566ZM41.006 12.95C40.286 12.95 39.611 12.83 38.996 12.605C38.366 12.365 37.811 12.05 37.361 11.645C36.896 11.225 36.536 10.73 36.281 10.13C36.011 9.56 35.876 8.9 35.876 8.18V0.844999H38.246V8.03C38.246 8.45 38.306 8.825 38.426 9.185C38.546 9.56 38.711 9.875 38.951 10.145C39.176 10.415 39.461 10.64 39.821 10.79C40.151 10.955 40.556 11.03 41.006 11.03C41.456 11.03 41.846 10.955 42.206 10.79C42.536 10.64 42.836 10.415 43.076 10.145C43.301 9.875 43.481 9.56 43.601 9.185C43.721 8.825 43.781 8.45 43.781 8.03V0.844999H46.151V8.18C46.151 8.9 46.016 9.56 45.761 10.13C45.491 10.73 45.116 11.225 44.666 11.645C44.186 12.05 43.646 12.365 43.031 12.605C42.401 12.83 41.726 12.95 41.006 12.95Z" fill="black"/>
<path d="M47.7254 12.65L52.0754 0.844999H54.6704L59.0204 12.65H56.6654L55.3154 8.855L51.0104 10.025L50.0804 12.65H47.7254ZM51.7304 8.03L54.7304 7.22L53.3654 3.41L51.7304 8.03Z" fill="#009FE0"/>
<path d="M60.2146 12.65V11L66.2146 2.675H60.4996V0.844999H68.8846V2.33L62.7646 10.82H69.1246V12.65H60.2146Z" fill="#ED7A7A"/>
</svg>
