<svg width="393" height="1611" viewBox="0 0 393 1611" fill="none" xmlns="http://www.w3.org/2000/svg">
<rect width="393" height="1611" fill="white"/>
<rect x="16.5" y="177.5" width="359" height="146" rx="5.5" fill="white" stroke="#D9D9D9"/>
<rect x="16.5" y="177.5" width="359" height="146" rx="5.5" fill="white" stroke="#D9D9D9"/>
<rect x="35" y="215" width="323.043" height="30" rx="6" fill="#EFEFEF"/>
<path d="M177.174 224.088H178.134V230.808H177.174V224.088ZM175.218 224.28H176.166V230.772H175.218V224.28ZM173.322 229.464H175.686V230.172H173.322V229.464ZM171.402 228.684H172.35V230.772H171.402V228.684ZM169.038 229.08L168.93 228.3C170.418 228.3 172.842 228.276 174.642 227.988L174.714 228.672C172.854 229.056 170.538 229.08 169.038 229.08ZM170.838 231.204H171.822V232.212H177.15V231.204H178.134V234.792H170.838V231.204ZM171.822 232.98V234H177.15V232.98H171.822ZM171.858 224.46C173.262 224.46 174.21 225.084 174.21 226.068C174.21 227.064 173.262 227.688 171.858 227.688C170.442 227.688 169.494 227.064 169.494 226.068C169.494 225.084 170.442 224.46 171.858 224.46ZM171.858 225.168C170.97 225.168 170.394 225.516 170.394 226.068C170.394 226.632 170.97 226.968 171.858 226.968C172.734 226.968 173.31 226.632 173.31 226.068C173.31 225.516 172.734 225.168 171.858 225.168ZM188.273 224.088H189.233V234.936H188.273V224.088ZM186.521 228.444H188.597V229.26H186.521V228.444ZM183.713 225.48H184.673C184.673 228.276 183.713 230.868 180.617 232.608L180.029 231.9C182.753 230.376 183.713 228.18 183.713 225.672V225.48ZM180.449 225.48H184.049V226.308H180.449V225.48ZM185.861 224.376H186.809V234.408H185.861V224.376ZM191.524 224.532H192.508V226.092H195.568V224.532H196.54V229.272H191.524V224.532ZM192.508 226.872V228.468H195.568V226.872H192.508ZM198.496 224.088H199.492V229.68H198.496V224.088ZM199.06 226.416H201.088V227.244H199.06V226.416ZM192.604 230.208H199.492V232.836H193.612V234.468H192.628V232.092H198.52V231H192.604V230.208ZM192.628 234.024H199.888V234.816H192.628V234.024ZM210.004 224.088H211.012V229.908H210.004V224.088ZM204.016 230.448H205V231.768H210.028V230.448H211.012V234.792H204.016V230.448ZM205 232.56V233.988H210.028V232.56H205ZM205.192 224.604C206.836 224.604 208.012 225.624 208.012 227.1C208.012 228.588 206.836 229.608 205.192 229.608C203.548 229.608 202.36 228.588 202.36 227.1C202.36 225.624 203.548 224.604 205.192 224.604ZM205.192 225.432C204.112 225.432 203.332 226.116 203.332 227.1C203.332 228.084 204.112 228.768 205.192 228.768C206.272 228.768 207.052 228.084 207.052 227.1C207.052 226.116 206.272 225.432 205.192 225.432ZM213.147 229.632H222.975V230.448H213.147V229.632ZM217.635 230.136H218.631V232.632H217.635V230.136ZM214.407 224.592H221.703V228.408H214.407V224.592ZM220.719 225.396H215.379V227.604H220.719V225.396ZM214.395 233.88H221.883V234.696H214.395V233.88ZM214.395 231.588H215.379V234.168H214.395V231.588Z" fill="black"/>
<path d="M16 183C16 179.686 18.6863 177 22 177H369.881C373.195 177 375.881 179.686 375.881 183V204H16V183Z" fill="#9AC1D1"/>
<path d="M168.096 185.545V195H166.951V186.746H166.896L164.587 188.278V187.115L166.951 185.545H168.096ZM170.512 185.497H177.454V186.381H170.512V185.497ZM173.983 186.979C175.647 186.979 176.791 187.811 176.791 189.111C176.791 190.398 175.647 191.217 173.983 191.217C172.293 191.217 171.162 190.398 171.162 189.111C171.162 187.811 172.293 186.979 173.983 186.979ZM173.983 187.824C172.904 187.824 172.189 188.318 172.189 189.111C172.189 189.878 172.904 190.385 173.983 190.385C175.036 190.385 175.764 189.878 175.764 189.111C175.764 188.318 175.036 187.824 173.983 187.824ZM178.52 184.262H179.599V191.607H178.52V184.262ZM179.3 187.499H181.341V188.396H179.3V187.499ZM171.968 192.244H179.599V196.014H178.52V193.128H171.968V192.244ZM173.437 184.197H174.516V185.991H173.437V184.197ZM191.025 184.262H192.104V192.972H191.025V184.262ZM187.71 185.796H191.428V186.667H187.71V185.796ZM184.59 194.87H192.416V195.754H184.59V194.87ZM184.59 192.218H185.669V195.273H184.59V192.218ZM183.121 185.12H184.2V190.658H183.121V185.12ZM183.121 190.32H184.005C185.682 190.32 187.255 190.229 189.088 189.904L189.192 190.801C187.307 191.139 185.734 191.217 184.005 191.217H183.121V190.32ZM187.71 188.032H191.428V188.916H187.71V188.032ZM198.389 195V194.169L201.51 190.753C201.876 190.353 202.178 190.005 202.415 189.71C202.652 189.411 202.827 189.131 202.941 188.869C203.058 188.605 203.117 188.328 203.117 188.038C203.117 187.706 203.037 187.418 202.877 187.175C202.72 186.932 202.504 186.744 202.23 186.612C201.956 186.48 201.649 186.413 201.307 186.413C200.944 186.413 200.627 186.489 200.356 186.64C200.088 186.787 199.88 186.995 199.733 187.263C199.588 187.531 199.516 187.844 199.516 188.205H198.426C198.426 187.651 198.554 187.164 198.809 186.746C199.065 186.327 199.413 186.001 199.853 185.767C200.296 185.533 200.793 185.416 201.344 185.416C201.898 185.416 202.389 185.533 202.816 185.767C203.244 186.001 203.58 186.316 203.823 186.713C204.066 187.11 204.188 187.552 204.188 188.038C204.188 188.386 204.124 188.726 203.998 189.059C203.875 189.388 203.66 189.756 203.352 190.162C203.047 190.565 202.624 191.058 202.082 191.639L199.959 193.911V193.984H204.354V195H198.389ZM205.958 185.497H212.9V186.381H205.958V185.497ZM209.429 186.979C211.093 186.979 212.237 187.811 212.237 189.111C212.237 190.398 211.093 191.217 209.429 191.217C207.739 191.217 206.608 190.398 206.608 189.111C206.608 187.811 207.739 186.979 209.429 186.979ZM209.429 187.824C208.35 187.824 207.635 188.318 207.635 189.111C207.635 189.878 208.35 190.385 209.429 190.385C210.482 190.385 211.21 189.878 211.21 189.111C211.21 188.318 210.482 187.824 209.429 187.824ZM213.966 184.262H215.045V191.607H213.966V184.262ZM214.746 187.499H216.787V188.396H214.746V187.499ZM207.414 192.244H215.045V196.014H213.966V193.128H207.414V192.244ZM208.883 184.197H209.962V185.991H208.883V184.197ZM226.445 184.262H227.524V196.014H226.445V184.262ZM223 185.523H224.066C224.066 188.929 222.532 191.906 218.606 193.83L218.034 192.959C221.427 191.321 223 188.825 223 185.705V185.523ZM218.567 185.523H223.468V186.407H218.567V185.523Z" fill="white"/>
<rect x="17.5" y="344.5" width="359" height="146" rx="5.5" fill="white" stroke="#D9D9D9"/>
<rect x="17.5" y="344.5" width="359" height="146" rx="5.5" fill="white" stroke="#D9D9D9"/>
<rect x="36" y="382" width="323.043" height="30" rx="6" fill="#EFEFEF"/>
<path d="M160.657 392.273H161.714V398.511C161.714 399.068 161.612 399.541 161.407 399.93C161.203 400.32 160.915 400.615 160.542 400.817C160.17 401.018 159.731 401.119 159.226 401.119C158.748 401.119 158.324 401.033 157.952 400.859C157.579 400.683 157.287 400.433 157.074 400.109C156.861 399.786 156.754 399.401 156.754 398.955H157.794C157.794 399.202 157.855 399.418 157.977 399.602C158.102 399.784 158.273 399.926 158.488 400.028C158.704 400.131 158.95 400.182 159.226 400.182C159.53 400.182 159.788 400.118 160.001 399.99C160.214 399.862 160.376 399.675 160.487 399.428C160.601 399.178 160.657 398.872 160.657 398.511V392.273ZM165.622 401.153C165.207 401.153 164.831 401.075 164.493 400.919C164.155 400.76 163.886 400.531 163.687 400.233C163.488 399.932 163.389 399.568 163.389 399.142C163.389 398.767 163.463 398.463 163.611 398.23C163.758 397.994 163.956 397.81 164.203 397.676C164.45 397.543 164.723 397.443 165.021 397.378C165.322 397.31 165.625 397.256 165.929 397.216C166.327 397.165 166.649 397.126 166.896 397.101C167.146 397.072 167.328 397.026 167.442 396.96C167.558 396.895 167.616 396.781 167.616 396.619V396.585C167.616 396.165 167.501 395.838 167.271 395.605C167.044 395.372 166.699 395.256 166.236 395.256C165.756 395.256 165.379 395.361 165.106 395.571C164.834 395.781 164.642 396.006 164.531 396.244L163.577 395.903C163.747 395.506 163.974 395.196 164.258 394.974C164.545 394.75 164.858 394.594 165.196 394.506C165.537 394.415 165.872 394.369 166.202 394.369C166.412 394.369 166.653 394.395 166.926 394.446C167.202 394.494 167.467 394.595 167.723 394.749C167.981 394.902 168.196 395.134 168.366 395.443C168.537 395.753 168.622 396.168 168.622 396.688V401H167.616V400.114H167.565C167.497 400.256 167.383 400.408 167.224 400.57C167.065 400.732 166.854 400.869 166.589 400.983C166.325 401.097 166.003 401.153 165.622 401.153ZM165.775 400.25C166.173 400.25 166.508 400.172 166.781 400.016C167.057 399.859 167.264 399.658 167.403 399.411C167.545 399.163 167.616 398.903 167.616 398.631V397.71C167.574 397.761 167.48 397.808 167.335 397.851C167.193 397.891 167.028 397.926 166.841 397.957C166.656 397.986 166.476 398.011 166.3 398.034C166.126 398.054 165.986 398.071 165.878 398.085C165.616 398.119 165.372 398.175 165.145 398.251C164.92 398.325 164.738 398.437 164.599 398.588C164.463 398.736 164.395 398.937 164.395 399.193C164.395 399.543 164.524 399.807 164.782 399.986C165.044 400.162 165.375 400.25 165.775 400.25ZM175.575 394.455L173.155 401H172.132L169.712 394.455H170.803L172.61 399.67H172.678L174.485 394.455H175.575ZM178.63 401.153C178.215 401.153 177.839 401.075 177.501 400.919C177.162 400.76 176.894 400.531 176.695 400.233C176.496 399.932 176.397 399.568 176.397 399.142C176.397 398.767 176.471 398.463 176.618 398.23C176.766 397.994 176.964 397.81 177.211 397.676C177.458 397.543 177.731 397.443 178.029 397.378C178.33 397.31 178.633 397.256 178.937 397.216C179.334 397.165 179.657 397.126 179.904 397.101C180.154 397.072 180.336 397.026 180.449 396.96C180.566 396.895 180.624 396.781 180.624 396.619V396.585C180.624 396.165 180.509 395.838 180.279 395.605C180.052 395.372 179.706 395.256 179.243 395.256C178.763 395.256 178.387 395.361 178.114 395.571C177.841 395.781 177.65 396.006 177.539 396.244L176.584 395.903C176.755 395.506 176.982 395.196 177.266 394.974C177.553 394.75 177.866 394.594 178.204 394.506C178.545 394.415 178.88 394.369 179.209 394.369C179.42 394.369 179.661 394.395 179.934 394.446C180.209 394.494 180.475 394.595 180.731 394.749C180.989 394.902 181.204 395.134 181.374 395.443C181.545 395.753 181.63 396.168 181.63 396.688V401H180.624V400.114H180.573C180.505 400.256 180.391 400.408 180.232 400.57C180.073 400.732 179.861 400.869 179.597 400.983C179.333 401.097 179.01 401.153 178.63 401.153ZM178.783 400.25C179.181 400.25 179.516 400.172 179.789 400.016C180.064 399.859 180.272 399.658 180.411 399.411C180.553 399.163 180.624 398.903 180.624 398.631V397.71C180.581 397.761 180.488 397.808 180.343 397.851C180.201 397.891 180.036 397.926 179.849 397.957C179.664 397.986 179.483 398.011 179.307 398.034C179.134 398.054 178.993 398.071 178.885 398.085C178.624 398.119 178.38 398.175 178.153 398.251C177.928 398.325 177.746 398.437 177.607 398.588C177.471 398.736 177.403 398.937 177.403 399.193C177.403 399.543 177.532 399.807 177.79 399.986C178.052 400.162 178.383 400.25 178.783 400.25ZM183.145 399.716H192.973V400.544H183.145V399.716ZM183.997 392.168H192.049V392.984H183.997V392.168ZM184.021 396.752H192.037V397.568H184.021V396.752ZM185.689 392.924H186.685V396.836H185.689V392.924ZM189.385 392.924H190.369V396.836H189.385V392.924ZM194.184 399.776H204.012V400.604H194.184V399.776ZM198.576 397.448H199.572V400.124H198.576V397.448ZM195.372 391.892H202.8V395.18H196.392V397.352H195.408V394.376H201.816V392.696H195.372V391.892ZM195.408 396.932H203.052V397.748H195.408V396.932ZM206.279 392.24H213.263V393.044H206.279V392.24ZM205.223 399.524H215.027V400.352H205.223V399.524ZM212.735 392.24H213.707V393.32C213.707 394.712 213.707 396.26 213.299 398.6L212.303 398.504C212.735 396.284 212.735 394.664 212.735 393.32V392.24ZM216.61 398.516H217.33C218.65 398.516 219.85 398.468 221.314 398.216L221.398 399.044C219.898 399.308 218.674 399.344 217.33 399.344H216.61V398.516ZM216.586 392.264H220.654V396.08H217.582V398.828H216.61V395.264H219.682V393.08H216.586V392.264ZM224.506 391.088H225.466V401.936H224.506V391.088ZM222.67 395.372H224.758V396.188H222.67V395.372ZM222.046 391.328H222.982V401.384H222.046V391.328ZM227.865 391.88H232.917V396.608H227.865V391.88ZM231.957 392.684H228.825V395.804H231.957V392.684ZM235.185 391.1H236.193V397.568H235.185V391.1ZM232.605 397.76C234.849 397.76 236.253 398.528 236.253 399.836C236.253 401.156 234.849 401.912 232.605 401.912C230.361 401.912 228.969 401.156 228.969 399.836C228.969 398.528 230.361 397.76 232.605 397.76ZM232.605 398.552C230.961 398.552 229.953 399.032 229.953 399.836C229.953 400.64 230.961 401.132 232.605 401.132C234.249 401.132 235.257 400.64 235.257 399.836C235.257 399.032 234.249 398.552 232.605 398.552Z" fill="black"/>
<rect x="36" y="423" width="323.043" height="30" rx="6" fill="#EFEFEF"/>
<path d="M172.227 432.088H173.187V442.936H172.227V432.088ZM167.727 436.228H170.451V437.044H167.727V436.228ZM170.043 432.34H170.991V442.384H170.043V432.34ZM164.379 439.492H165.075C166.767 439.492 167.787 439.444 168.987 439.192L169.083 440.02C167.847 440.284 166.803 440.332 165.075 440.332H164.379V439.492ZM164.379 433.408H168.459V434.224H165.363V439.816H164.379V433.408ZM182.894 432.076H183.89V442.948H182.894V432.076ZM178.166 432.916C179.774 432.916 180.926 434.392 180.926 436.696C180.926 439.012 179.774 440.488 178.166 440.488C176.57 440.488 175.418 439.012 175.418 436.696C175.418 434.392 176.57 432.916 178.166 432.916ZM178.166 433.816C177.11 433.816 176.366 434.944 176.366 436.696C176.366 438.46 177.11 439.612 178.166 439.612C179.234 439.612 179.966 438.46 179.966 436.696C179.966 434.944 179.234 433.816 178.166 433.816ZM194.005 432.076H194.989V442.948H194.005V432.076ZM191.749 436.168H194.149V436.996H191.749V436.168ZM186.553 439.516H187.381C189.421 439.516 190.705 439.48 192.229 439.192L192.325 440.008C190.765 440.284 189.445 440.344 187.381 440.344H186.553V439.516ZM186.553 433.072H191.569V433.9H187.537V439.804H186.553V433.072ZM187.285 436.12H191.101V436.924H187.285V436.12ZM197.484 433.156H198.432V435.796H200.712V433.156H201.636V440.212H197.484V433.156ZM198.432 436.6V439.396H200.712V436.6H198.432ZM205.356 432.088H206.316V442.936H205.356V432.088ZM201.468 436.204H203.556V437.032H201.468V436.204ZM203.208 432.316H204.156V442.396H203.208V432.316ZM216.011 432.076H217.007V442.948H216.011V432.076ZM211.283 432.916C212.891 432.916 214.043 434.392 214.043 436.696C214.043 439.012 212.891 440.488 211.283 440.488C209.687 440.488 208.535 439.012 208.535 436.696C208.535 434.392 209.687 432.916 211.283 432.916ZM211.283 433.816C210.227 433.816 209.483 434.944 209.483 436.696C209.483 438.46 210.227 439.612 211.283 439.612C212.351 439.612 213.083 438.46 213.083 436.696C213.083 434.944 212.351 433.816 211.283 433.816ZM223.522 432.832H224.386V433.66C224.386 436.024 222.19 437.86 220.018 438.352L219.574 437.524C221.482 437.164 223.522 435.508 223.522 433.66V432.832ZM223.702 432.832H224.566V433.66C224.566 435.52 226.618 437.164 228.514 437.524L228.07 438.352C225.91 437.86 223.702 436.036 223.702 433.66V432.832ZM219.178 440.656H229.006V441.472H219.178V440.656Z" fill="black"/>
<path d="M17 350C17 346.686 19.6863 344 23 344H370.881C374.195 344 376.881 346.686 376.881 350V371H17V350Z" fill="#9AC1D1"/>
<path d="M165.772 362V361.169L168.893 357.753C169.259 357.353 169.561 357.005 169.798 356.71C170.035 356.411 170.21 356.131 170.324 355.869C170.441 355.605 170.499 355.328 170.499 355.038C170.499 354.706 170.419 354.418 170.259 354.175C170.102 353.932 169.887 353.744 169.613 353.612C169.339 353.48 169.031 353.413 168.69 353.413C168.327 353.413 168.01 353.489 167.739 353.64C167.471 353.787 167.263 353.995 167.115 354.263C166.971 354.531 166.899 354.844 166.899 355.205H165.809C165.809 354.651 165.937 354.164 166.192 353.746C166.448 353.327 166.795 353.001 167.236 352.767C167.679 352.533 168.176 352.416 168.727 352.416C169.281 352.416 169.772 352.533 170.199 352.767C170.627 353.001 170.963 353.316 171.206 353.713C171.449 354.11 171.57 354.552 171.57 355.038C171.57 355.386 171.507 355.726 171.381 356.059C171.258 356.388 171.043 356.756 170.735 357.162C170.43 357.565 170.007 358.058 169.465 358.639L167.342 360.911V360.984H171.737V362H165.772ZM173.341 352.497H180.283V353.381H173.341V352.497ZM176.812 353.979C178.476 353.979 179.62 354.811 179.62 356.111C179.62 357.398 178.476 358.217 176.812 358.217C175.122 358.217 173.991 357.398 173.991 356.111C173.991 354.811 175.122 353.979 176.812 353.979ZM176.812 354.824C175.733 354.824 175.018 355.318 175.018 356.111C175.018 356.878 175.733 357.385 176.812 357.385C177.865 357.385 178.593 356.878 178.593 356.111C178.593 355.318 177.865 354.824 176.812 354.824ZM181.349 351.262H182.428V358.607H181.349V351.262ZM182.129 354.499H184.17V355.396H182.129V354.499ZM174.797 359.244H182.428V363.014H181.349V360.128H174.797V359.244ZM176.266 351.197H177.345V352.991H176.266V351.197ZM193.853 351.262H194.932V359.972H193.853V351.262ZM190.538 352.796H194.256V353.667H190.538V352.796ZM187.418 361.87H195.244V362.754H187.418V361.87ZM187.418 359.218H188.497V362.273H187.418V359.218ZM185.949 352.12H187.028V357.658H185.949V352.12ZM185.949 357.32H186.833C188.51 357.32 190.083 357.229 191.916 356.904L192.02 357.801C190.135 358.139 188.562 358.217 186.833 358.217H185.949V357.32ZM190.538 355.032H194.256V355.916H190.538V355.032ZM204.541 352.545V362H203.396V353.746H203.341L201.033 355.278V354.115L203.396 352.545H204.541ZM206.958 352.497H213.9V353.381H206.958V352.497ZM210.429 353.979C212.093 353.979 213.237 354.811 213.237 356.111C213.237 357.398 212.093 358.217 210.429 358.217C208.739 358.217 207.608 357.398 207.608 356.111C207.608 354.811 208.739 353.979 210.429 353.979ZM210.429 354.824C209.35 354.824 208.635 355.318 208.635 356.111C208.635 356.878 209.35 357.385 210.429 357.385C211.482 357.385 212.21 356.878 212.21 356.111C212.21 355.318 211.482 354.824 210.429 354.824ZM214.966 351.262H216.045V358.607H214.966V351.262ZM215.746 354.499H217.787V355.396H215.746V354.499ZM208.414 359.244H216.045V363.014H214.966V360.128H208.414V359.244ZM209.883 351.197H210.962V352.991H209.883V351.197ZM227.445 351.262H228.524V363.014H227.445V351.262ZM224 352.523H225.066C225.066 355.929 223.532 358.906 219.606 360.83L219.034 359.959C222.427 358.321 224 355.825 224 352.705V352.523ZM219.567 352.523H224.468V353.407H219.567V352.523Z" fill="white"/>
<rect x="16.5" y="512.5" width="359" height="146" rx="5.5" fill="white" stroke="#D9D9D9"/>
<rect x="16.5" y="512.5" width="359" height="156" rx="5.5" fill="white" stroke="#D9D9D9"/>
<rect x="35" y="550" width="323.043" height="30" rx="6" fill="#EFEFEF"/>
<path d="M174.01 564.584H183.85V565.4H174.01V564.584ZM178.498 565.1H179.506V567.596H178.498V565.1ZM175.258 568.868H182.758V569.696H175.258V568.868ZM175.258 566.528H176.254V569.096H175.258V566.528ZM178.918 559.352C181.21 559.352 182.722 560.192 182.722 561.536C182.722 562.88 181.21 563.72 178.918 563.72C176.614 563.72 175.114 562.88 175.114 561.536C175.114 560.192 176.614 559.352 178.918 559.352ZM178.918 560.168C177.262 560.168 176.17 560.696 176.17 561.536C176.17 562.388 177.262 562.904 178.918 562.904C180.574 562.904 181.666 562.388 181.666 561.536C181.666 560.696 180.574 560.168 178.918 560.168ZM189.993 560.648H193.305V561.464H189.993V560.648ZM189.993 563.144H193.305V563.972H189.993V563.144ZM188.013 559.724C189.609 559.724 190.809 560.804 190.809 562.304C190.809 563.816 189.609 564.884 188.013 564.884C186.405 564.884 185.217 563.816 185.217 562.304C185.217 560.804 186.405 559.724 188.013 559.724ZM188.013 560.576C186.957 560.576 186.177 561.284 186.177 562.304C186.177 563.324 186.957 564.032 188.013 564.032C189.069 564.032 189.861 563.324 189.861 562.304C189.861 561.284 189.069 560.576 188.013 560.576ZM192.981 559.088H193.977V565.508H192.981V559.088ZM190.413 565.76C192.645 565.76 194.025 566.528 194.025 567.836C194.025 569.156 192.645 569.912 190.413 569.912C188.169 569.912 186.789 569.156 186.789 567.836C186.789 566.528 188.169 565.76 190.413 565.76ZM190.413 566.552C188.769 566.552 187.773 567.032 187.773 567.836C187.773 568.652 188.769 569.132 190.413 569.132C192.045 569.132 193.041 568.652 193.041 567.836C193.041 567.032 192.045 566.552 190.413 566.552ZM200.516 563.372H202.568V564.188H200.516V563.372ZM198.308 561.86H199.076V562.424C199.076 564.584 198.176 566.768 196.592 567.716L196.004 566.96C197.468 566.108 198.308 564.2 198.308 562.424V561.86ZM198.488 561.86H199.256V562.424C199.256 564.152 200.12 565.94 201.584 566.732L201.02 567.476C199.424 566.588 198.488 564.536 198.488 562.424V561.86ZM196.304 561.08H201.26V561.908H196.304V561.08ZM198.308 559.472H199.268V561.716H198.308V559.472ZM204.344 559.088H205.304V569.936H204.344V559.088ZM202.172 559.34H203.108V569.384H202.172V559.34ZM215.383 559.088H216.343V569.936H215.383V559.088ZM211.435 562.976H213.511V563.804H211.435V562.976ZM213.211 559.34H214.147V569.384H213.211V559.34ZM209.347 560.768H210.115V562.148C210.115 564.524 209.203 566.768 207.607 567.776L206.995 567.032C208.507 566.12 209.347 564.14 209.347 562.148V560.768ZM209.551 560.768H210.319V562.148C210.319 564.032 211.135 565.916 212.623 566.78L212.011 567.512C210.427 566.552 209.551 564.416 209.551 562.148V560.768ZM207.295 560.348H212.251V561.176H207.295V560.348Z" fill="black"/>
<rect x="35" y="589" width="323.043" height="30" rx="6" fill="#EFEFEF"/>
<path d="M174.57 600.956H177.102V601.772H174.57V600.956ZM173.562 598.712H174.594C174.594 601.472 173.058 603.476 169.686 604.508L169.278 603.716C172.278 602.816 173.562 601.196 173.562 599.096V598.712ZM169.77 598.712H174.15V599.516H169.77V598.712ZM173.55 600.68V601.376L169.398 601.7L169.23 600.884L173.55 600.68ZM176.922 598.088H177.918V604.34H176.922V598.088ZM170.922 604.928H177.918V608.792H170.922V604.928ZM176.946 605.72H171.906V607.988H176.946V605.72ZM182.585 604.556H183.581V608.936H182.585V604.556ZM186.329 604.556H187.325V608.936H186.329V604.556ZM180.953 598.688H188.921V599.504H180.953V598.688ZM181.001 602.42H188.873V603.236H181.001V602.42ZM182.597 599.324H183.593V602.9H182.597V599.324ZM186.293 599.324H187.277V602.9H186.293V599.324ZM180.029 604.472H189.857V605.288H180.029V604.472ZM199.024 598.076H200.008V608.948H199.024V598.076ZM196.768 602.168H199.168V602.996H196.768V602.168ZM191.572 605.516H192.4C194.44 605.516 195.724 605.48 197.248 605.192L197.344 606.008C195.784 606.284 194.464 606.344 192.4 606.344H191.572V605.516ZM191.572 599.072H196.588V599.9H192.556V605.804H191.572V599.072ZM192.304 602.12H196.12V602.924H192.304V602.12ZM203.344 598.796H210.124V599.6H203.344V598.796ZM202.12 603.452H211.924V604.268H202.12V603.452ZM206.5 603.992H207.496V608.948H206.5V603.992ZM209.656 598.796H210.628V599.732C210.628 600.86 210.628 602.132 210.22 603.968L209.236 603.836C209.656 602.084 209.656 600.824 209.656 599.732V598.796ZM213.159 606.716H222.987V607.544H213.159V606.716ZM217.575 604.088H218.559V606.992H217.575V604.088ZM217.551 599.456H218.391V600.128C218.391 602.348 216.171 604.028 214.035 604.472L213.627 603.68C215.499 603.368 217.551 601.844 217.551 600.128V599.456ZM217.731 599.456H218.571V600.128C218.571 601.844 220.635 603.332 222.531 603.644L222.135 604.436C219.963 604.004 217.731 602.348 217.731 600.128V599.456ZM213.963 599.072H222.159V599.888H213.963V599.072Z" fill="black"/>
<rect x="36" y="629" width="323.043" height="30" rx="6" fill="#EFEFEF"/>
<path d="M176.246 638.088H177.206V648.936H176.246V638.088ZM171.746 642.228H174.47V643.044H171.746V642.228ZM174.062 638.34H175.01V648.384H174.062V638.34ZM168.398 645.492H169.094C170.786 645.492 171.806 645.444 173.006 645.192L173.102 646.02C171.866 646.284 170.822 646.332 169.094 646.332H168.398V645.492ZM168.398 639.408H172.478V640.224H169.382V645.816H168.398V639.408ZM186.913 638.076H187.909V648.948H186.913V638.076ZM182.185 638.916C183.793 638.916 184.945 640.392 184.945 642.696C184.945 645.012 183.793 646.488 182.185 646.488C180.589 646.488 179.437 645.012 179.437 642.696C179.437 640.392 180.589 638.916 182.185 638.916ZM182.185 639.816C181.129 639.816 180.385 640.944 180.385 642.696C180.385 644.46 181.129 645.612 182.185 645.612C183.253 645.612 183.985 644.46 183.985 642.696C183.985 640.944 183.253 639.816 182.185 639.816ZM198.024 638.076H199.008V648.948H198.024V638.076ZM195.768 642.168H198.168V642.996H195.768V642.168ZM190.572 645.516H191.4C193.44 645.516 194.724 645.48 196.248 645.192L196.344 646.008C194.784 646.284 193.464 646.344 191.4 646.344H190.572V645.516ZM190.572 639.072H195.588V639.9H191.556V645.804H190.572V639.072ZM191.304 642.12H195.12V642.924H191.304V642.12ZM201.108 643.836H210.912V644.64H201.108V643.836ZM205.512 642.432H206.496V644.172H205.512V642.432ZM202.404 641.988H209.76V642.768H202.404V641.988ZM202.404 638.4H209.712V639.18H203.388V642.408H202.404V638.4ZM203.1 640.176H209.424V640.944H203.1V640.176ZM206.004 645.444C208.368 645.444 209.724 646.044 209.724 647.184C209.724 648.312 208.368 648.912 206.004 648.912C203.64 648.912 202.284 648.312 202.284 647.184C202.284 646.044 203.64 645.444 206.004 645.444ZM206.004 646.2C204.264 646.2 203.292 646.548 203.292 647.184C203.292 647.832 204.264 648.168 206.004 648.168C207.744 648.168 208.716 647.832 208.716 647.184C208.716 646.548 207.744 646.2 206.004 646.2ZM220.043 638.1H221.051V646.044H220.043V638.1ZM214.079 647.88H221.375V648.696H214.079V647.88ZM214.079 645.312H215.063V648.264H214.079V645.312ZM214.979 638.688H215.807V639.792C215.807 641.904 214.607 643.752 212.783 644.496L212.267 643.692C213.899 643.056 214.979 641.472 214.979 639.792V638.688ZM215.159 638.688H215.975V639.792C215.975 641.424 217.067 642.9 218.687 643.488L218.159 644.292C216.359 643.596 215.159 641.856 215.159 639.792V638.688Z" fill="black"/>
<path d="M16 518C16 514.686 18.6863 512 22 512H369.881C373.195 512 375.881 514.686 375.881 518V539H16V518Z" fill="#9AC1D1"/>
<path d="M163.858 530V529.169L166.979 525.753C167.345 525.353 167.647 525.005 167.884 524.71C168.121 524.411 168.296 524.131 168.41 523.869C168.527 523.605 168.585 523.328 168.585 523.038C168.585 522.706 168.505 522.418 168.345 522.175C168.188 521.932 167.973 521.744 167.699 521.612C167.425 521.48 167.117 521.413 166.776 521.413C166.412 521.413 166.095 521.489 165.825 521.64C165.557 521.787 165.349 521.995 165.201 522.263C165.057 522.531 164.984 522.844 164.984 523.205H163.895C163.895 522.651 164.023 522.164 164.278 521.746C164.534 521.327 164.881 521.001 165.321 520.767C165.765 520.533 166.262 520.416 166.813 520.416C167.367 520.416 167.857 520.533 168.285 520.767C168.713 521.001 169.048 521.316 169.292 521.713C169.535 522.11 169.656 522.552 169.656 523.038C169.656 523.386 169.593 523.726 169.467 524.059C169.344 524.388 169.129 524.756 168.821 525.162C168.516 525.565 168.093 526.058 167.551 526.639L165.428 528.911V528.984H169.823V530H163.858ZM171.426 520.497H178.368V521.381H171.426V520.497ZM174.897 521.979C176.561 521.979 177.705 522.811 177.705 524.111C177.705 525.398 176.561 526.217 174.897 526.217C173.207 526.217 172.076 525.398 172.076 524.111C172.076 522.811 173.207 521.979 174.897 521.979ZM174.897 522.824C173.818 522.824 173.103 523.318 173.103 524.111C173.103 524.878 173.818 525.385 174.897 525.385C175.95 525.385 176.678 524.878 176.678 524.111C176.678 523.318 175.95 522.824 174.897 522.824ZM179.434 519.262H180.513V526.607H179.434V519.262ZM180.214 522.499H182.255V523.396H180.214V522.499ZM172.882 527.244H180.513V531.014H179.434V528.128H172.882V527.244ZM174.351 519.197H175.43V520.991H174.351V519.197ZM191.939 519.262H193.018V527.972H191.939V519.262ZM188.624 520.796H192.342V521.667H188.624V520.796ZM185.504 529.87H193.33V530.754H185.504V529.87ZM185.504 527.218H186.583V530.273H185.504V527.218ZM184.035 520.12H185.114V525.658H184.035V520.12ZM184.035 525.32H184.919C186.596 525.32 188.169 525.229 190.002 524.904L190.106 525.801C188.221 526.139 186.648 526.217 184.919 526.217H184.035V525.32ZM188.624 523.032H192.342V523.916H188.624V523.032ZM199.303 530V529.169L202.424 525.753C202.79 525.353 203.092 525.005 203.329 524.71C203.566 524.411 203.741 524.131 203.855 523.869C203.972 523.605 204.031 523.328 204.031 523.038C204.031 522.706 203.951 522.418 203.791 522.175C203.634 521.932 203.418 521.744 203.144 521.612C202.87 521.48 202.563 521.413 202.221 521.413C201.858 521.413 201.541 521.489 201.27 521.64C201.002 521.787 200.794 521.995 200.647 522.263C200.502 522.531 200.43 522.844 200.43 523.205H199.34C199.34 522.651 199.468 522.164 199.723 521.746C199.979 521.327 200.327 521.001 200.767 520.767C201.21 520.533 201.707 520.416 202.258 520.416C202.812 520.416 203.303 520.533 203.731 520.767C204.158 521.001 204.494 521.316 204.737 521.713C204.98 522.11 205.102 522.552 205.102 523.038C205.102 523.386 205.039 523.726 204.912 524.059C204.789 524.388 204.574 524.756 204.266 525.162C203.961 525.565 203.538 526.058 202.997 526.639L200.873 528.911V528.984H205.268V530H199.303ZM206.872 520.497H213.814V521.381H206.872V520.497ZM210.343 521.979C212.007 521.979 213.151 522.811 213.151 524.111C213.151 525.398 212.007 526.217 210.343 526.217C208.653 526.217 207.522 525.398 207.522 524.111C207.522 522.811 208.653 521.979 210.343 521.979ZM210.343 522.824C209.264 522.824 208.549 523.318 208.549 524.111C208.549 524.878 209.264 525.385 210.343 525.385C211.396 525.385 212.124 524.878 212.124 524.111C212.124 523.318 211.396 522.824 210.343 522.824ZM214.88 519.262H215.959V526.607H214.88V519.262ZM215.66 522.499H217.701V523.396H215.66V522.499ZM208.328 527.244H215.959V531.014H214.88V528.128H208.328V527.244ZM209.797 519.197H210.876V520.991H209.797V519.197ZM227.359 519.262H228.438V531.014H227.359V519.262ZM223.914 520.523H224.98C224.98 523.929 223.446 526.906 219.52 528.83L218.948 527.959C222.341 526.321 223.914 523.825 223.914 520.705V520.523ZM219.481 520.523H224.382V521.407H219.481V520.523Z" fill="white"/>
<rect x="17.5" y="689.5" width="359" height="146" rx="5.5" fill="white" stroke="#D9D9D9"/>
<rect x="17.5" y="689.5" width="359" height="197" rx="5.5" fill="white" stroke="#D9D9D9"/>
<rect x="36" y="727" width="323.043" height="30" rx="6" fill="#EFEFEF"/>
<path d="M177.698 737.636H178.49V739.4C178.49 741.656 177.11 743.984 175.418 744.848L174.842 744.056C176.39 743.3 177.698 741.236 177.698 739.4V737.636ZM177.878 737.636H178.67V739.4C178.67 741.116 179.894 743.048 181.466 743.792L180.902 744.584C179.186 743.732 177.878 741.548 177.878 739.4V737.636ZM175.226 737.192H181.07V738.032H175.226V737.192ZM182.354 736.088H183.362V746.936H182.354V736.088ZM183.122 740.468H185.138V741.308H183.122V740.468ZM188.797 742.448H189.781V745.112H188.797V742.448ZM192.265 742.424H193.237V745.1H192.265V742.424ZM186.061 744.776H195.889V745.604H186.061V744.776ZM187.249 736.892H194.677V740.168H188.269V742.352H187.285V739.376H193.693V737.696H187.249V736.892ZM187.285 741.908H194.929V742.724H187.285V741.908ZM198.324 736.796H205.104V737.6H198.324V736.796ZM197.1 741.452H206.904V742.268H197.1V741.452ZM201.48 741.992H202.476V746.948H201.48V741.992ZM204.636 736.796H205.608V737.732C205.608 738.86 205.608 740.132 205.2 741.968L204.216 741.836C204.636 740.084 204.636 738.824 204.636 737.732V736.796ZM208.139 744.716H217.967V745.544H208.139V744.716ZM212.555 742.088H213.539V744.992H212.555V742.088ZM212.531 737.456H213.371V738.128C213.371 740.348 211.151 742.028 209.015 742.472L208.607 741.68C210.479 741.368 212.531 739.844 212.531 738.128V737.456ZM212.711 737.456H213.551V738.128C213.551 739.844 215.615 741.332 217.511 741.644L217.115 742.436C214.943 742.004 212.711 740.348 212.711 738.128V737.456ZM208.943 737.072H217.139V737.888H208.943V737.072Z" fill="black"/>
<rect x="36" y="767" width="323.043" height="30" rx="6" fill="#EFEFEF"/>
<path d="M164.531 778.956H167.063V779.772H164.531V778.956ZM163.523 776.712H164.555C164.555 779.472 163.019 781.476 159.647 782.508L159.239 781.716C162.239 780.816 163.523 779.196 163.523 777.096V776.712ZM159.731 776.712H164.111V777.516H159.731V776.712ZM163.511 778.68V779.376L159.359 779.7L159.191 778.884L163.511 778.68ZM166.883 776.088H167.879V782.34H166.883V776.088ZM160.883 782.928H167.879V786.792H160.883V782.928ZM166.907 783.72H161.867V785.988H166.907V783.72ZM172.546 782.556H173.542V786.936H172.546V782.556ZM176.29 782.556H177.286V786.936H176.29V782.556ZM170.914 776.688H178.882V777.504H170.914V776.688ZM170.962 780.42H178.834V781.236H170.962V780.42ZM172.558 777.324H173.554V780.9H172.558V777.324ZM176.254 777.324H177.238V780.9H176.254V777.324ZM169.99 782.472H179.818V783.288H169.99V782.472ZM188.985 776.076H189.969V786.948H188.985V776.076ZM186.729 780.168H189.129V780.996H186.729V780.168ZM181.533 783.516H182.361C184.401 783.516 185.685 783.48 187.209 783.192L187.305 784.008C185.745 784.284 184.425 784.344 182.361 784.344H181.533V783.516ZM181.533 777.072H186.549V777.9H182.517V783.804H181.533V777.072ZM182.265 780.12H186.081V780.924H182.265V780.12ZM192.596 777.252H193.58V783.612H192.596V777.252ZM192.596 783.324H193.292C194.552 783.324 195.728 783.264 197.096 782.988L197.228 783.84C195.812 784.128 194.6 784.188 193.292 784.188H192.596V783.324ZM200.336 776.088H201.296V786.936H200.336V776.088ZM195.608 779.724H198.32V780.552H195.608V779.724ZM198.044 776.34H198.98V786.384H198.044V776.34ZM204.38 781.932H211.832V782.736H204.38V781.932ZM203.12 784.716H212.948V785.544H203.12V784.716ZM204.38 777.012H211.712V777.828H205.388V782.184H204.38V777.012ZM205.064 779.436H211.484V780.228H205.064V779.436ZM217.099 782.148H218.083V786.6H217.099V782.148ZM222.067 776.088H223.063V786.948H222.067V776.088ZM214.243 782.64L214.111 781.8C216.163 781.8 218.887 781.788 221.239 781.452L221.299 782.196C218.875 782.604 216.259 782.64 214.243 782.64ZM219.607 783.492H222.319V784.272H219.607V783.492ZM217.651 776.628C219.247 776.628 220.363 777.48 220.363 778.764C220.363 780.048 219.247 780.9 217.651 780.9C216.031 780.9 214.927 780.048 214.927 778.764C214.927 777.48 216.031 776.628 217.651 776.628ZM217.651 777.396C216.595 777.396 215.851 777.96 215.851 778.764C215.851 779.58 216.595 780.132 217.651 780.132C218.683 780.132 219.427 779.58 219.427 778.764C219.427 777.96 218.683 777.396 217.651 777.396ZM226.362 777.192H233.25V778.008H226.362V777.192ZM225.198 784.596H235.002V785.436H225.198V784.596ZM232.818 777.192H233.79V778.524C233.79 780.12 233.79 781.596 233.334 783.816L232.35 783.72C232.818 781.632 232.818 780.084 232.818 778.524V777.192ZM233.07 780.192V780.936L226.218 781.308L226.074 780.48L233.07 780.192Z" fill="black"/>
<rect x="37" y="807" width="323.043" height="30" rx="6" fill="#EFEFEF"/>
<path d="M157.963 823.716H167.791V824.544H157.963V823.716ZM158.815 816.168H166.867V816.984H158.815V816.168ZM158.839 820.752H166.855V821.568H158.839V820.752ZM160.507 816.924H161.503V820.836H160.507V816.924ZM164.203 816.924H165.187V820.836H164.203V816.924ZM168.99 821.28H178.83V822.096H168.99V821.28ZM170.286 825.012H177.798V825.828H170.286V825.012ZM170.286 822.816H171.282V825.252H170.286V822.816ZM173.406 819.72H174.402V821.628H173.406V819.72ZM170.238 815.436H177.558V818.124H171.246V819.588H170.262V817.392H176.586V816.216H170.238V815.436ZM170.262 819.324H177.798V820.104H170.262V819.324ZM181.301 820.932H188.753V821.736H181.301V820.932ZM180.041 823.716H189.869V824.544H180.041V823.716ZM181.301 816.012H188.633V816.828H182.309V821.184H181.301V816.012ZM181.985 818.436H188.405V819.228H181.985V818.436ZM195.688 818.184H197.536V819H195.688V818.184ZM193.648 815.928C195.064 815.928 196.108 817.02 196.108 818.568C196.108 820.116 195.064 821.208 193.648 821.208C192.208 821.208 191.176 820.116 191.176 818.568C191.176 817.02 192.208 815.928 193.648 815.928ZM193.648 816.792C192.748 816.792 192.076 817.524 192.076 818.568C192.076 819.612 192.748 820.356 193.648 820.356C194.536 820.356 195.208 819.612 195.208 818.568C195.208 817.524 194.536 816.792 193.648 816.792ZM199.264 815.088H200.212V823.2H199.264V815.088ZM197.212 815.304H198.16V822.888H197.212V815.304ZM193.144 824.88H200.548V825.696H193.144V824.88ZM193.144 822.156H194.14V825.252H193.144V822.156ZM203.356 820.284H210.808V821.1H203.356V820.284ZM202.12 823.644H211.948V824.472H202.12V823.644ZM203.356 816.084H210.7V816.912H204.352V820.644H203.356V816.084ZM221.391 815.088H222.351V825.936H221.391V815.088ZM219.639 819.444H221.715V820.26H219.639V819.444ZM216.831 816.48H217.791C217.791 819.276 216.831 821.868 213.735 823.608L213.147 822.9C215.871 821.376 216.831 819.18 216.831 816.672V816.48ZM213.567 816.48H217.167V817.308H213.567V816.48ZM218.979 815.376H219.927V825.408H218.979V815.376ZM224.642 815.532H225.626V817.092H228.686V815.532H229.658V820.272H224.642V815.532ZM225.626 817.872V819.468H228.686V817.872H225.626ZM231.614 815.088H232.61V820.68H231.614V815.088ZM232.178 817.416H234.206V818.244H232.178V817.416ZM225.722 821.208H232.61V823.836H226.73V825.468H225.746V823.092H231.638V822H225.722V821.208ZM225.746 825.024H233.006V825.816H225.746V825.024Z" fill="black"/>
<rect x="37" y="846" width="323.043" height="30" rx="6" fill="#EFEFEF"/>
<path d="M149.426 864V855.273H152.375C153.059 855.273 153.619 855.396 154.054 855.643C154.491 855.888 154.815 856.219 155.025 856.636C155.236 857.054 155.341 857.52 155.341 858.034C155.341 858.548 155.236 859.016 155.025 859.436C154.818 859.857 154.497 860.192 154.062 860.442C153.628 860.689 153.071 860.812 152.392 860.812H150.278V859.875H152.358C152.827 859.875 153.203 859.794 153.487 859.632C153.771 859.47 153.977 859.251 154.105 858.976C154.236 858.697 154.301 858.384 154.301 858.034C154.301 857.685 154.236 857.372 154.105 857.097C153.977 856.821 153.77 856.605 153.483 856.449C153.196 856.29 152.815 856.21 152.341 856.21H150.483V864H149.426ZM157.555 866.455C157.384 866.455 157.232 866.44 157.099 866.412C156.965 866.386 156.873 866.361 156.822 866.335L157.077 865.449C157.322 865.511 157.537 865.534 157.725 865.517C157.912 865.5 158.079 865.416 158.224 865.266C158.371 865.118 158.506 864.878 158.628 864.545L158.816 864.034L156.395 857.455H157.486L159.293 862.67H159.361L161.168 857.455H162.259L159.481 864.955C159.356 865.293 159.201 865.572 159.016 865.794C158.831 866.018 158.617 866.185 158.373 866.293C158.131 866.401 157.858 866.455 157.555 866.455ZM166.433 857.455V858.307H163.041V857.455H166.433ZM164.03 855.886H165.035V862.125C165.035 862.409 165.077 862.622 165.159 862.764C165.244 862.903 165.352 862.997 165.483 863.045C165.616 863.091 165.757 863.114 165.905 863.114C166.015 863.114 166.106 863.108 166.177 863.097C166.248 863.082 166.305 863.071 166.348 863.062L166.552 863.966C166.484 863.991 166.389 864.017 166.267 864.043C166.145 864.071 165.99 864.085 165.802 864.085C165.518 864.085 165.24 864.024 164.967 863.902C164.697 863.78 164.473 863.594 164.294 863.344C164.118 863.094 164.03 862.778 164.03 862.398V855.886ZM169.092 860.062V864H168.086V855.273H169.092V858.477H169.177C169.331 858.139 169.561 857.871 169.868 857.672C170.177 857.47 170.589 857.369 171.104 857.369C171.55 857.369 171.94 857.459 172.275 857.638C172.611 857.814 172.871 858.085 173.055 858.452C173.243 858.815 173.336 859.278 173.336 859.841V864H172.331V859.909C172.331 859.389 172.196 858.987 171.926 858.703C171.659 858.416 171.288 858.273 170.814 858.273C170.484 858.273 170.189 858.342 169.927 858.482C169.669 858.621 169.464 858.824 169.314 859.091C169.166 859.358 169.092 859.682 169.092 860.062ZM177.835 864.136C177.244 864.136 176.726 863.996 176.28 863.714C175.837 863.433 175.49 863.04 175.24 862.534C174.993 862.028 174.869 861.437 174.869 860.761C174.869 860.08 174.993 859.484 175.24 858.976C175.49 858.467 175.837 858.072 176.28 857.791C176.726 857.51 177.244 857.369 177.835 857.369C178.426 857.369 178.943 857.51 179.387 857.791C179.833 858.072 180.179 858.467 180.426 858.976C180.676 859.484 180.801 860.08 180.801 860.761C180.801 861.437 180.676 862.028 180.426 862.534C180.179 863.04 179.833 863.433 179.387 863.714C178.943 863.996 178.426 864.136 177.835 864.136ZM177.835 863.233C178.284 863.233 178.654 863.118 178.943 862.888C179.233 862.658 179.448 862.355 179.587 861.98C179.726 861.605 179.796 861.199 179.796 860.761C179.796 860.324 179.726 859.916 179.587 859.538C179.448 859.161 179.233 858.855 178.943 858.622C178.654 858.389 178.284 858.273 177.835 858.273C177.387 858.273 177.017 858.389 176.727 858.622C176.438 858.855 176.223 859.161 176.084 859.538C175.945 859.916 175.875 860.324 175.875 860.761C175.875 861.199 175.945 861.605 176.084 861.98C176.223 862.355 176.438 862.658 176.727 862.888C177.017 863.118 177.387 863.233 177.835 863.233ZM183.342 860.062V864H182.336V857.455H183.308V858.477H183.393C183.547 858.145 183.78 857.878 184.092 857.676C184.405 857.472 184.808 857.369 185.302 857.369C185.746 857.369 186.133 857.46 186.466 857.642C186.798 857.821 187.057 858.094 187.241 858.46C187.426 858.824 187.518 859.284 187.518 859.841V864H186.513V859.909C186.513 859.395 186.379 858.994 186.112 858.707C185.845 858.418 185.479 858.273 185.013 858.273C184.692 858.273 184.405 858.342 184.152 858.482C183.902 858.621 183.704 858.824 183.559 859.091C183.415 859.358 183.342 859.682 183.342 860.062ZM189.036 862.716H198.864V863.544H189.036V862.716ZM189.888 855.168H197.94V855.984H189.888V855.168ZM189.912 859.752H197.928V860.568H189.912V859.752ZM191.58 855.924H192.576V859.836H191.58V855.924ZM195.276 855.924H196.26V859.836H195.276V855.924ZM200.075 862.776H209.903V863.604H200.075V862.776ZM204.467 860.448H205.463V863.124H204.467V860.448ZM201.263 854.892H208.691V858.18H202.283V860.352H201.299V857.376H207.707V855.696H201.263V854.892ZM201.299 859.932H208.943V860.748H201.299V859.932ZM212.17 855.24H219.154V856.044H212.17V855.24ZM211.114 862.524H220.918V863.352H211.114V862.524ZM218.626 855.24H219.598V856.32C219.598 857.712 219.598 859.26 219.19 861.6L218.194 861.504C218.626 859.284 218.626 857.664 218.626 856.32V855.24ZM222.501 861.516H223.221C224.541 861.516 225.741 861.468 227.205 861.216L227.289 862.044C225.789 862.308 224.565 862.344 223.221 862.344H222.501V861.516ZM222.477 855.264H226.545V859.08H223.473V861.828H222.501V858.264H225.573V856.08H222.477V855.264ZM230.397 854.088H231.357V864.936H230.397V854.088ZM228.561 858.372H230.649V859.188H228.561V858.372ZM227.937 854.328H228.873V864.384H227.937V854.328ZM233.756 854.88H238.808V859.608H233.756V854.88ZM237.848 855.684H234.716V858.804H237.848V855.684ZM241.076 854.1H242.084V860.568H241.076V854.1ZM238.496 860.76C240.74 860.76 242.144 861.528 242.144 862.836C242.144 864.156 240.74 864.912 238.496 864.912C236.252 864.912 234.86 864.156 234.86 862.836C234.86 861.528 236.252 860.76 238.496 860.76ZM238.496 861.552C236.852 861.552 235.844 862.032 235.844 862.836C235.844 863.64 236.852 864.132 238.496 864.132C240.14 864.132 241.148 863.64 241.148 862.836C241.148 862.032 240.14 861.552 238.496 861.552Z" fill="black"/>
<path d="M17 695C17 691.686 19.6863 689 23 689H370.881C374.195 689 376.881 691.686 376.881 695V716H17V695Z" fill="#9AC1D1"/>
<path d="M168.764 707.129C168.154 707.129 167.611 707.025 167.134 706.815C166.66 706.606 166.283 706.315 166.003 705.943C165.726 705.567 165.575 705.132 165.551 704.636H166.714C166.738 704.941 166.843 705.204 167.028 705.426C167.212 705.644 167.454 705.814 167.753 705.934C168.051 706.054 168.382 706.114 168.745 706.114C169.151 706.114 169.511 706.043 169.825 705.901C170.139 705.76 170.386 705.563 170.564 705.31C170.743 705.058 170.832 704.766 170.832 704.433C170.832 704.085 170.746 703.779 170.573 703.515C170.401 703.247 170.149 703.038 169.816 702.887C169.484 702.736 169.077 702.661 168.597 702.661H167.84V701.645H168.597C168.973 701.645 169.302 701.577 169.585 701.442C169.872 701.306 170.095 701.116 170.255 700.869C170.418 700.623 170.499 700.334 170.499 700.001C170.499 699.681 170.429 699.403 170.287 699.166C170.145 698.929 169.945 698.744 169.687 698.612C169.431 698.48 169.13 698.413 168.782 698.413C168.456 698.413 168.148 698.473 167.859 698.593C167.573 698.71 167.339 698.881 167.157 699.106C166.975 699.327 166.877 699.595 166.862 699.909H165.754C165.772 699.414 165.921 698.98 166.201 698.607C166.481 698.232 166.848 697.939 167.3 697.73C167.756 697.521 168.256 697.416 168.801 697.416C169.385 697.416 169.887 697.535 170.305 697.772C170.724 698.006 171.046 698.315 171.27 698.7C171.495 699.084 171.607 699.5 171.607 699.946C171.607 700.478 171.467 700.932 171.187 701.308C170.91 701.683 170.533 701.943 170.056 702.088V702.162C170.653 702.26 171.12 702.514 171.455 702.924C171.79 703.33 171.958 703.833 171.958 704.433C171.958 704.947 171.818 705.409 171.538 705.818C171.261 706.224 170.883 706.545 170.402 706.778C169.922 707.012 169.376 707.129 168.764 707.129ZM173.544 697.497H180.486V698.381H173.544V697.497ZM177.015 698.979C178.679 698.979 179.823 699.811 179.823 701.111C179.823 702.398 178.679 703.217 177.015 703.217C175.325 703.217 174.194 702.398 174.194 701.111C174.194 699.811 175.325 698.979 177.015 698.979ZM177.015 699.824C175.936 699.824 175.221 700.318 175.221 701.111C175.221 701.878 175.936 702.385 177.015 702.385C178.068 702.385 178.796 701.878 178.796 701.111C178.796 700.318 178.068 699.824 177.015 699.824ZM181.552 696.262H182.631V703.607H181.552V696.262ZM182.332 699.499H184.373V700.396H182.332V699.499ZM175 704.244H182.631V708.014H181.552V705.128H175V704.244ZM176.469 696.197H177.548V697.991H176.469V696.197ZM194.057 696.262H195.136V704.972H194.057V696.262ZM190.742 697.796H194.46V698.667H190.742V697.796ZM187.622 706.87H195.448V707.754H187.622V706.87ZM187.622 704.218H188.701V707.273H187.622V704.218ZM186.153 697.12H187.232V702.658H186.153V697.12ZM186.153 702.32H187.037C188.714 702.32 190.287 702.229 192.12 701.904L192.224 702.801C190.339 703.139 188.766 703.217 187.037 703.217H186.153V702.32ZM190.742 700.032H194.46V700.916H190.742V700.032ZM204.744 697.545V707H203.6V698.746H203.544L201.236 700.278V699.115L203.6 697.545H204.744ZM207.161 697.497H214.103V698.381H207.161V697.497ZM210.632 698.979C212.296 698.979 213.44 699.811 213.44 701.111C213.44 702.398 212.296 703.217 210.632 703.217C208.942 703.217 207.811 702.398 207.811 701.111C207.811 699.811 208.942 698.979 210.632 698.979ZM210.632 699.824C209.553 699.824 208.838 700.318 208.838 701.111C208.838 701.878 209.553 702.385 210.632 702.385C211.685 702.385 212.413 701.878 212.413 701.111C212.413 700.318 211.685 699.824 210.632 699.824ZM215.169 696.262H216.248V703.607H215.169V696.262ZM215.949 699.499H217.99V700.396H215.949V699.499ZM208.617 704.244H216.248V708.014H215.169V705.128H208.617V704.244ZM210.086 696.197H211.165V697.991H210.086V696.197ZM227.648 696.262H228.727V708.014H227.648V696.262ZM224.203 697.523H225.269C225.269 700.929 223.735 703.906 219.809 705.83L219.237 704.959C222.63 703.321 224.203 700.825 224.203 697.705V697.523ZM219.77 697.523H224.671V698.407H219.77V697.523Z" fill="white"/>
<rect x="17.5" y="908.5" width="359" height="146" rx="5.5" fill="white" stroke="#D9D9D9"/>
<rect x="17.5" y="908.5" width="359" height="197" rx="5.5" fill="white" stroke="#D9D9D9"/>
<rect x="36" y="946" width="323.043" height="30" rx="6" fill="#EFEFEF"/>
<path d="M182.438 955.088H183.434V960.608H182.438V955.088ZM183.002 957.416H185.03V958.244H183.002V957.416ZM176.546 961.124H183.434V963.788H177.554V965.408H176.57V963.032H182.462V961.916H176.546V961.124ZM176.57 964.988H183.83V965.792H176.57V964.988ZM178.01 955.472C179.642 955.472 180.818 956.468 180.818 957.884C180.818 959.312 179.642 960.308 178.01 960.308C176.402 960.308 175.214 959.312 175.214 957.884C175.214 956.468 176.402 955.472 178.01 955.472ZM178.01 956.288C176.966 956.288 176.186 956.948 176.186 957.884C176.186 958.832 176.966 959.492 178.01 959.492C179.078 959.492 179.858 958.832 179.858 957.884C179.858 956.948 179.078 956.288 178.01 956.288ZM187.093 956.168H194.077V956.996H187.093V956.168ZM186.061 963.596H195.865V964.424H186.061V963.596ZM189.865 959.72H190.861V964.004H189.865V959.72ZM193.705 956.168H194.689V957.248C194.689 958.592 194.689 960.08 194.293 962.276L193.297 962.144C193.705 960.068 193.705 958.544 193.705 957.248V956.168ZM204.996 955.076H205.992V965.948H204.996V955.076ZM197.724 962.504H198.624C200.436 962.504 202.056 962.432 203.976 962.12L204.084 962.936C202.116 963.26 200.484 963.332 198.624 963.332H197.724V962.504ZM197.7 956.096H202.716V959.972H198.72V962.816H197.724V959.156H201.708V956.912H197.7V956.096ZM212.387 956H213.275V956.324C213.275 958.064 211.283 959.252 209.039 959.528L208.679 958.736C210.623 958.52 212.387 957.548 212.387 956.324V956ZM212.807 956H213.683V956.324C213.683 957.548 215.447 958.52 217.391 958.736L217.031 959.528C214.787 959.252 212.807 958.064 212.807 956.324V956ZM209.027 955.556H217.055V956.36H209.027V955.556ZM209.327 962.132H216.731V965.792H209.327V962.132ZM215.759 962.936H210.311V964.988H215.759V962.936ZM208.127 960.164H217.931V960.98H208.127V960.164Z" fill="black"/>
<rect x="36" y="986" width="323.043" height="30" rx="6" fill="#EFEFEF"/>
<path d="M153.944 1003.73H163.772V1004.56H153.944V1003.73ZM158.336 1000.92H159.332V1003.96H158.336V1000.92ZM155.084 995.988H162.572V1001.1H155.084V995.988ZM161.612 996.792H156.056V1000.3H161.612V996.792ZM172.315 995.088H173.323V1005.94H172.315V995.088ZM173.083 999.348H175.099V1000.2H173.083V999.348ZM165.403 996H166.387V998.868H169.483V996H170.467V1003.33H165.403V996ZM166.387 999.66V1002.52H169.483V999.66H166.387ZM179.058 995.484C180.678 995.484 181.866 996.468 181.866 997.896C181.866 999.312 180.678 1000.3 179.058 1000.3C177.45 1000.3 176.262 999.312 176.262 997.896C176.262 996.468 177.45 995.484 179.058 995.484ZM179.058 996.3C178.014 996.3 177.222 996.96 177.222 997.896C177.222 998.832 178.014 999.48 179.058 999.48C180.114 999.48 180.894 998.832 180.894 997.896C180.894 996.96 180.114 996.3 179.058 996.3ZM183.906 995.088H184.914V1000.64H183.906V995.088ZM177.894 1001.17H184.914V1003.81H178.89V1005.44H177.918V1003.07H183.93V1001.98H177.894V1001.17ZM177.918 1005H185.274V1005.79H177.918V1005ZM187.061 1003.72H196.889V1004.54H187.061V1003.72ZM187.913 996.168H195.965V996.984H187.913V996.168ZM187.937 1000.75H195.953V1001.57H187.937V1000.75ZM189.605 996.924H190.601V1000.84H189.605V996.924ZM193.301 996.924H194.285V1000.84H193.301V996.924ZM198.1 1003.78H207.928V1004.6H198.1V1003.78ZM202.492 1001.45H203.488V1004.12H202.492V1001.45ZM199.288 995.892H206.716V999.18H200.308V1001.35H199.324V998.376H205.732V996.696H199.288V995.892ZM199.324 1000.93H206.968V1001.75H199.324V1000.93ZM210.195 996.24H217.179V997.044H210.195V996.24ZM209.139 1003.52H218.943V1004.35H209.139V1003.52ZM216.651 996.24H217.623V997.32C217.623 998.712 217.623 1000.26 217.215 1002.6L216.219 1002.5C216.651 1000.28 216.651 998.664 216.651 997.32V996.24ZM220.526 1002.52H221.246C222.566 1002.52 223.766 1002.47 225.23 1002.22L225.314 1003.04C223.814 1003.31 222.59 1003.34 221.246 1003.34H220.526V1002.52ZM220.502 996.264H224.57V1000.08H221.498V1002.83H220.526V999.264H223.598V997.08H220.502V996.264ZM228.422 995.088H229.382V1005.94H228.422V995.088ZM226.586 999.372H228.674V1000.19H226.586V999.372ZM225.962 995.328H226.898V1005.38H225.962V995.328ZM231.781 995.88H236.833V1000.61H231.781V995.88ZM235.873 996.684H232.741V999.804H235.873V996.684ZM239.101 995.1H240.109V1001.57H239.101V995.1ZM236.521 1001.76C238.765 1001.76 240.169 1002.53 240.169 1003.84C240.169 1005.16 238.765 1005.91 236.521 1005.91C234.277 1005.91 232.885 1005.16 232.885 1003.84C232.885 1002.53 234.277 1001.76 236.521 1001.76ZM236.521 1002.55C234.877 1002.55 233.869 1003.03 233.869 1003.84C233.869 1004.64 234.877 1005.13 236.521 1005.13C238.165 1005.13 239.173 1004.64 239.173 1003.84C239.173 1003.03 238.165 1002.55 236.521 1002.55Z" fill="black"/>
<rect x="37" y="1026" width="323.043" height="30" rx="6" fill="#EFEFEF"/>
<path d="M141.905 1042.72H151.733V1043.54H141.905V1042.72ZM142.757 1035.17H150.809V1035.98H142.757V1035.17ZM142.781 1039.75H150.797V1040.57H142.781V1039.75ZM144.449 1035.92H145.445V1039.84H144.449V1035.92ZM148.145 1035.92H149.129V1039.84H148.145V1035.92ZM152.932 1040.28H162.772V1041.1H152.932V1040.28ZM154.228 1044.01H161.74V1044.83H154.228V1044.01ZM154.228 1041.82H155.224V1044.25H154.228V1041.82ZM157.348 1038.72H158.344V1040.63H157.348V1038.72ZM154.18 1034.44H161.5V1037.12H155.188V1038.59H154.204V1036.39H160.528V1035.22H154.18V1034.44ZM154.204 1038.32H161.74V1039.1H154.204V1038.32ZM165.243 1039.93H172.695V1040.74H165.243V1039.93ZM163.983 1042.72H173.811V1043.54H163.983V1042.72ZM165.243 1035.01H172.575V1035.83H166.251V1040.18H165.243V1035.01ZM165.927 1037.44H172.347V1038.23H165.927V1037.44ZM179.63 1037.18H181.478V1038H179.63V1037.18ZM177.59 1034.93C179.006 1034.93 180.05 1036.02 180.05 1037.57C180.05 1039.12 179.006 1040.21 177.59 1040.21C176.15 1040.21 175.118 1039.12 175.118 1037.57C175.118 1036.02 176.15 1034.93 177.59 1034.93ZM177.59 1035.79C176.69 1035.79 176.018 1036.52 176.018 1037.57C176.018 1038.61 176.69 1039.36 177.59 1039.36C178.478 1039.36 179.15 1038.61 179.15 1037.57C179.15 1036.52 178.478 1035.79 177.59 1035.79ZM183.206 1034.09H184.154V1042.2H183.206V1034.09ZM181.154 1034.3H182.102V1041.89H181.154V1034.3ZM177.086 1043.88H184.49V1044.7H177.086V1043.88ZM177.086 1041.16H178.082V1044.25H177.086V1041.16ZM187.297 1039.28H194.749V1040.1H187.297V1039.28ZM186.061 1042.64H195.889V1043.47H186.061V1042.64ZM187.297 1035.08H194.641V1035.91H188.293V1039.64H187.297V1035.08ZM197.1 1042.72H206.928V1043.54H197.1V1042.72ZM197.952 1035.17H206.004V1035.98H197.952V1035.17ZM197.976 1039.75H205.992V1040.57H197.976V1039.75ZM199.644 1035.92H200.64V1039.84H199.644V1035.92ZM203.34 1035.92H204.324V1039.84H203.34V1035.92ZM208.487 1041.44H209.207C210.527 1041.44 211.751 1041.4 213.239 1041.14L213.323 1041.96C211.799 1042.22 210.575 1042.27 209.207 1042.27H208.487V1041.44ZM208.463 1035.28H212.339V1039.06H209.459V1041.78H208.487V1038.25H211.379V1036.09H208.463V1035.28ZM216.383 1034.09H217.343V1044.94H216.383V1034.09ZM212.855 1037.98H214.607V1038.8H212.855V1037.98ZM214.199 1034.35H215.123V1044.37H214.199V1034.35ZM227.062 1034.1H228.07V1040.29H227.062V1034.1ZM221.062 1040.88H228.07V1044.79H221.062V1040.88ZM227.086 1041.67H222.034V1043.99H227.086V1041.67ZM222.25 1034.66C223.894 1034.66 225.07 1035.7 225.07 1037.2C225.07 1038.7 223.894 1039.73 222.25 1039.73C220.606 1039.73 219.418 1038.7 219.418 1037.2C219.418 1035.7 220.606 1034.66 222.25 1034.66ZM222.25 1035.49C221.17 1035.49 220.39 1036.19 220.39 1037.2C220.39 1038.2 221.17 1038.89 222.25 1038.89C223.33 1038.89 224.11 1038.2 224.11 1037.2C224.11 1036.19 223.33 1035.49 222.25 1035.49ZM233.157 1040.15H234.141V1044.6H233.157V1040.15ZM238.125 1034.09H239.121V1044.95H238.125V1034.09ZM230.301 1040.64L230.169 1039.8C232.221 1039.8 234.945 1039.79 237.297 1039.45L237.357 1040.2C234.933 1040.6 232.317 1040.64 230.301 1040.64ZM235.665 1041.49H238.377V1042.27H235.665V1041.49ZM233.709 1034.63C235.305 1034.63 236.421 1035.48 236.421 1036.76C236.421 1038.05 235.305 1038.9 233.709 1038.9C232.089 1038.9 230.985 1038.05 230.985 1036.76C230.985 1035.48 232.089 1034.63 233.709 1034.63ZM233.709 1035.4C232.653 1035.4 231.909 1035.96 231.909 1036.76C231.909 1037.58 232.653 1038.13 233.709 1038.13C234.741 1038.13 235.485 1037.58 235.485 1036.76C235.485 1035.96 234.741 1035.4 233.709 1035.4ZM242.42 1035.19H249.308V1036.01H242.42V1035.19ZM241.256 1042.6H251.06V1043.44H241.256V1042.6ZM248.876 1035.19H249.848V1036.52C249.848 1038.12 249.848 1039.6 249.392 1041.82L248.408 1041.72C248.876 1039.63 248.876 1038.08 248.876 1036.52V1035.19ZM249.128 1038.19V1038.94L242.276 1039.31L242.132 1038.48L249.128 1038.19Z" fill="black"/>
<rect x="37" y="1065" width="323.043" height="30" rx="6" fill="#EFEFEF"/>
<path d="M152.336 1076.76H155.36V1077.58H152.336V1076.76ZM149.72 1074.02H150.536V1075.96C150.536 1078.39 149.252 1080.72 147.536 1081.64L146.9 1080.85C148.496 1080.06 149.72 1077.97 149.72 1075.96V1074.02ZM149.912 1074.02H150.716V1075.96C150.716 1077.94 151.94 1079.9 153.512 1080.65L152.924 1081.45C151.172 1080.56 149.912 1078.33 149.912 1075.96V1074.02ZM154.868 1073.08H155.852V1083.95H154.868V1073.08ZM165.907 1073.08H166.891V1083.95H165.907V1073.08ZM163.039 1077.11H166.195V1077.92H163.039V1077.11ZM158.395 1073.94H159.379V1076.76H162.391V1073.94H163.375V1081.22H158.395V1073.94ZM159.379 1077.55V1080.4H162.391V1077.55H159.379ZM170.226 1073.8H177.006V1074.6H170.226V1073.8ZM169.002 1078.45H178.806V1079.27H169.002V1078.45ZM173.382 1078.99H174.378V1083.95H173.382V1078.99ZM176.538 1073.8H177.51V1074.73C177.51 1075.86 177.51 1077.13 177.102 1078.97L176.118 1078.84C176.538 1077.08 176.538 1075.82 176.538 1074.73V1073.8ZM184.445 1079.12H185.429V1080.83H184.445V1079.12ZM180.029 1078.55H189.833V1079.35H180.029V1078.55ZM181.121 1080.58H188.621V1083.9H187.625V1081.39H181.121V1080.58ZM184.445 1073.03H185.429V1074.54H184.445V1073.03ZM184.397 1074.67H185.273V1074.85C185.273 1076.64 183.293 1077.68 180.929 1077.94L180.617 1077.18C182.717 1076.99 184.397 1076.1 184.397 1074.85V1074.67ZM184.601 1074.67H185.477V1074.85C185.477 1076.1 187.157 1076.99 189.257 1077.18L188.945 1077.94C186.569 1077.68 184.601 1076.64 184.601 1074.85V1074.67ZM181.037 1074.14H188.837V1074.95H181.037V1074.14ZM191.644 1073.78H196.696V1078.22H191.644V1073.78ZM195.736 1074.59H192.604V1077.43H195.736V1074.59ZM198.964 1073.09H199.96V1079.32H198.964V1073.09ZM196.024 1080.6H196.876V1080.8C196.876 1082.36 194.944 1083.61 192.748 1083.9L192.412 1083.13C194.296 1082.92 196.024 1081.88 196.024 1080.8V1080.6ZM196.168 1080.6H197.032V1080.8C197.032 1081.85 198.712 1082.9 200.596 1083.13L200.26 1083.9C198.052 1083.6 196.168 1082.33 196.168 1080.8V1080.6ZM192.844 1080.05H200.212V1080.83H192.844V1080.05ZM196.024 1079H197.032V1080.4H196.024V1079ZM208.216 1075.69H210.424V1076.51H208.216V1075.69ZM208.204 1077.8H210.412V1078.62H208.204V1077.8ZM202.132 1074.28H208.204V1075.08H202.132V1074.28ZM205.204 1075.64C206.656 1075.64 207.652 1076.44 207.652 1077.65C207.652 1078.86 206.656 1079.66 205.204 1079.66C203.752 1079.66 202.744 1078.86 202.744 1077.65C202.744 1076.44 203.752 1075.64 205.204 1075.64ZM205.204 1076.41C204.292 1076.41 203.68 1076.89 203.68 1077.65C203.68 1078.4 204.292 1078.9 205.204 1078.9C206.104 1078.9 206.728 1078.4 206.728 1077.65C206.728 1076.89 206.104 1076.41 205.204 1076.41ZM204.712 1072.99H205.708V1074.84H204.712V1072.99ZM210.04 1073.09H211.036V1080.1H210.04V1073.09ZM207.484 1080.2C209.728 1080.2 211.096 1080.89 211.096 1082.06C211.096 1083.24 209.728 1083.91 207.484 1083.91C205.228 1083.91 203.872 1083.24 203.872 1082.06C203.872 1080.89 205.228 1080.2 207.484 1080.2ZM207.484 1081C205.888 1081 204.904 1081.37 204.904 1082.06C204.904 1082.75 205.888 1083.14 207.484 1083.14C209.08 1083.14 210.064 1082.75 210.064 1082.06C210.064 1081.37 209.08 1081 207.484 1081ZM215.787 1073.65H216.615V1074.76C216.615 1076.84 215.439 1078.57 213.627 1079.28L213.099 1078.48C214.731 1077.88 215.787 1076.41 215.787 1074.76V1073.65ZM215.967 1073.65H216.783V1074.83C216.783 1076.29 217.863 1077.65 219.423 1078.19L218.895 1078.97C217.155 1078.32 215.967 1076.71 215.967 1074.83V1073.65ZM220.575 1073.09H221.571V1079.66H220.575V1073.09ZM221.295 1075.88H223.179V1076.72H221.295V1075.88ZM218.115 1079.96C220.335 1079.96 221.679 1080.7 221.679 1081.94C221.679 1083.19 220.335 1083.91 218.115 1083.91C215.895 1083.91 214.551 1083.19 214.551 1081.94C214.551 1080.7 215.895 1079.96 218.115 1079.96ZM218.115 1080.76C216.507 1080.76 215.523 1081.19 215.523 1081.94C215.523 1082.7 216.507 1083.13 218.115 1083.13C219.723 1083.13 220.707 1082.7 220.707 1081.94C220.707 1081.19 219.723 1080.76 218.115 1080.76ZM224.774 1073.93H229.574V1074.74H224.774V1073.93ZM226.406 1076.35H227.39V1079.06H226.406V1076.35ZM229.178 1073.93H230.162V1074.5C230.162 1075.21 230.162 1076.29 229.874 1077.72L228.902 1077.61C229.178 1076.18 229.178 1075.2 229.178 1074.5V1073.93ZM231.638 1073.09H232.634V1081.26H231.638V1073.09ZM232.178 1076.62H234.182V1077.44H232.178V1076.62ZM225.782 1082.88H232.982V1083.7H225.782V1082.88ZM225.782 1080.5H226.766V1083.13H225.782V1080.5ZM224.222 1079.53L224.114 1078.72C226.046 1078.72 228.71 1078.67 230.906 1078.37L230.978 1079.09C228.722 1079.48 226.13 1079.53 224.222 1079.53ZM243.133 1073.08H244.129V1083.95H243.133V1073.08ZM235.861 1080.5H236.761C238.573 1080.5 240.193 1080.43 242.113 1080.12L242.221 1080.94C240.253 1081.26 238.621 1081.33 236.761 1081.33H235.861V1080.5ZM235.837 1074.1H240.853V1077.97H236.857V1080.82H235.861V1077.16H239.845V1074.91H235.837V1074.1Z" fill="black"/>
<path d="M17 914C17 910.686 19.6863 908 23 908H370.881C374.195 908 376.881 910.686 376.881 914V935H17V914Z" fill="#9AC1D1"/>
<path d="M167.85 926.129C167.24 926.129 166.697 926.025 166.22 925.815C165.746 925.606 165.369 925.315 165.089 924.943C164.812 924.567 164.661 924.132 164.636 923.636H165.8C165.824 923.941 165.929 924.204 166.114 924.426C166.298 924.644 166.54 924.814 166.839 924.934C167.137 925.054 167.468 925.114 167.831 925.114C168.237 925.114 168.597 925.043 168.911 924.901C169.225 924.76 169.471 924.563 169.65 924.31C169.828 924.058 169.918 923.766 169.918 923.433C169.918 923.085 169.832 922.779 169.659 922.515C169.487 922.247 169.234 922.038 168.902 921.887C168.57 921.736 168.163 921.661 167.683 921.661H166.926V920.645H167.683C168.059 920.645 168.388 920.577 168.671 920.442C168.957 920.306 169.181 920.116 169.341 919.869C169.504 919.623 169.585 919.334 169.585 919.001C169.585 918.681 169.515 918.403 169.373 918.166C169.231 917.929 169.031 917.744 168.773 917.612C168.517 917.48 168.216 917.413 167.868 917.413C167.542 917.413 167.234 917.473 166.945 917.593C166.658 917.71 166.425 917.881 166.243 918.106C166.061 918.327 165.963 918.595 165.948 918.909H164.84C164.858 918.414 165.007 917.98 165.287 917.607C165.567 917.232 165.934 916.939 166.386 916.73C166.842 916.521 167.342 916.416 167.886 916.416C168.471 916.416 168.973 916.535 169.391 916.772C169.81 917.006 170.132 917.315 170.356 917.7C170.581 918.084 170.693 918.5 170.693 918.946C170.693 919.478 170.553 919.932 170.273 920.308C169.996 920.683 169.619 920.943 169.142 921.088V921.162C169.739 921.26 170.205 921.514 170.541 921.924C170.876 922.33 171.044 922.833 171.044 923.433C171.044 923.947 170.904 924.409 170.624 924.818C170.347 925.224 169.968 925.545 169.488 925.778C169.008 926.012 168.462 926.129 167.85 926.129ZM172.63 916.497H179.572V917.381H172.63V916.497ZM176.101 917.979C177.765 917.979 178.909 918.811 178.909 920.111C178.909 921.398 177.765 922.217 176.101 922.217C174.411 922.217 173.28 921.398 173.28 920.111C173.28 918.811 174.411 917.979 176.101 917.979ZM176.101 918.824C175.022 918.824 174.307 919.318 174.307 920.111C174.307 920.878 175.022 921.385 176.101 921.385C177.154 921.385 177.882 920.878 177.882 920.111C177.882 919.318 177.154 918.824 176.101 918.824ZM180.638 915.262H181.717V922.607H180.638V915.262ZM181.418 918.499H183.459V919.396H181.418V918.499ZM174.086 923.244H181.717V927.014H180.638V924.128H174.086V923.244ZM175.555 915.197H176.634V916.991H175.555V915.197ZM193.143 915.262H194.222V923.972H193.143V915.262ZM189.828 916.796H193.546V917.667H189.828V916.796ZM186.708 925.87H194.534V926.754H186.708V925.87ZM186.708 923.218H187.787V926.273H186.708V923.218ZM185.239 916.12H186.318V921.658H185.239V916.12ZM185.239 921.32H186.123C187.8 921.32 189.373 921.229 191.206 920.904L191.31 921.801C189.425 922.139 187.852 922.217 186.123 922.217H185.239V921.32ZM189.828 919.032H193.546V919.916H189.828V919.032ZM200.506 926V925.169L203.627 921.753C203.993 921.353 204.295 921.005 204.532 920.71C204.769 920.411 204.944 920.131 205.058 919.869C205.175 919.605 205.234 919.328 205.234 919.038C205.234 918.706 205.154 918.418 204.994 918.175C204.837 917.932 204.621 917.744 204.347 917.612C204.073 917.48 203.766 917.413 203.424 917.413C203.061 917.413 202.744 917.489 202.473 917.64C202.205 917.787 201.998 917.995 201.85 918.263C201.705 918.531 201.633 918.844 201.633 919.205H200.543C200.543 918.651 200.671 918.164 200.927 917.746C201.182 917.327 201.53 917.001 201.97 916.767C202.413 916.533 202.91 916.416 203.461 916.416C204.015 916.416 204.506 916.533 204.934 916.767C205.361 917.001 205.697 917.316 205.94 917.713C206.183 918.11 206.305 918.552 206.305 919.038C206.305 919.386 206.242 919.726 206.115 920.059C205.992 920.388 205.777 920.756 205.469 921.162C205.165 921.565 204.741 922.058 204.2 922.639L202.076 924.911V924.984H206.471V926H200.506ZM208.075 916.497H215.017V917.381H208.075V916.497ZM211.546 917.979C213.21 917.979 214.354 918.811 214.354 920.111C214.354 921.398 213.21 922.217 211.546 922.217C209.856 922.217 208.725 921.398 208.725 920.111C208.725 918.811 209.856 917.979 211.546 917.979ZM211.546 918.824C210.467 918.824 209.752 919.318 209.752 920.111C209.752 920.878 210.467 921.385 211.546 921.385C212.599 921.385 213.327 920.878 213.327 920.111C213.327 919.318 212.599 918.824 211.546 918.824ZM216.083 915.262H217.162V922.607H216.083V915.262ZM216.863 918.499H218.904V919.396H216.863V918.499ZM209.531 923.244H217.162V927.014H216.083V924.128H209.531V923.244ZM211 915.197H212.079V916.991H211V915.197ZM228.562 915.262H229.641V927.014H228.562V915.262ZM225.117 916.523H226.183C226.183 919.929 224.649 922.906 220.723 924.83L220.151 923.959C223.544 922.321 225.117 919.825 225.117 916.705V916.523ZM220.684 916.523H225.585V917.407H220.684V916.523Z" fill="white"/>
<rect x="17.5" y="1127.5" width="359" height="146" rx="5.5" fill="white" stroke="#D9D9D9"/>
<rect x="17.5" y="1127.5" width="359" height="197" rx="5.5" fill="white" stroke="#D9D9D9"/>
<rect x="36" y="1165" width="323.043" height="30" rx="6" fill="#EFEFEF"/>
<path d="M179.426 1177.52H180.41V1179.19H179.426V1177.52ZM175.01 1178.83H184.814V1179.63H175.01V1178.83ZM176.198 1180.52H183.566V1182.99H177.206V1184.28H176.222V1182.26H182.582V1181.28H176.198V1180.52ZM176.222 1184.05H183.89V1184.82H176.222V1184.05ZM179.27 1174.77H180.146V1175.11C180.146 1176.78 178.13 1177.87 175.862 1178.08L175.526 1177.33C177.47 1177.16 179.27 1176.28 179.27 1175.11V1174.77ZM179.702 1174.77H180.566V1175.11C180.566 1176.27 182.366 1177.16 184.31 1177.33L183.974 1178.08C181.718 1177.86 179.702 1176.78 179.702 1175.11V1174.77ZM175.91 1174.44H183.938V1175.24H175.91V1174.44ZM191.509 1176.67H194.425V1177.5H191.509V1176.67ZM189.013 1174.58C190.633 1174.58 191.809 1175.61 191.809 1177.1C191.809 1178.59 190.633 1179.61 189.013 1179.61C187.393 1179.61 186.217 1178.59 186.217 1177.1C186.217 1175.61 187.393 1174.58 189.013 1174.58ZM189.013 1175.42C187.945 1175.42 187.177 1176.1 187.177 1177.1C187.177 1178.08 187.945 1178.78 189.013 1178.78C190.081 1178.78 190.849 1178.08 190.849 1177.1C190.849 1176.1 190.081 1175.42 189.013 1175.42ZM193.981 1174.09H194.977V1179.91H193.981V1174.09ZM188.029 1180.45H189.025V1181.82H193.993V1180.45H194.977V1184.79H188.029V1180.45ZM189.025 1182.61V1183.99H193.993V1182.61H189.025ZM199.968 1175.64H200.772V1177.4C200.772 1179.69 199.392 1182 197.664 1182.85L197.088 1182.06C198.66 1181.31 199.968 1179.27 199.968 1177.4V1175.64ZM200.16 1175.64H200.964V1177.4C200.964 1179.24 202.272 1181.11 203.868 1181.79L203.304 1182.58C201.552 1181.77 200.16 1179.66 200.16 1177.4V1175.64ZM197.448 1175.19H203.508V1176.03H197.448V1175.19ZM204.972 1174.09H205.968V1184.94H204.972V1174.09ZM209.375 1179.15H216.827V1179.97H209.375V1179.15ZM208.139 1182.74H217.967V1183.58H208.139V1182.74ZM212.531 1179.5H213.527V1183.08H212.531V1179.5ZM209.375 1174.95H216.719V1175.77H210.371V1179.51H209.375V1174.95Z" fill="black"/>
<rect x="36" y="1205" width="323.043" height="30" rx="6" fill="#EFEFEF"/>
<path d="M136.885 1222.7H146.713V1223.53H136.885V1222.7ZM141.253 1220.08H142.237V1222.98H141.253V1220.08ZM141.229 1214.81H142.093V1215.65C142.093 1217.96 139.873 1219.75 137.689 1220.21L137.269 1219.38C139.177 1219.03 141.229 1217.44 141.229 1215.65V1214.81ZM141.409 1214.81H142.273V1215.65C142.273 1217.45 144.337 1219.03 146.245 1219.38L145.813 1220.21C143.629 1219.75 141.409 1217.96 141.409 1215.65V1214.81ZM147.924 1222.72H157.752V1223.54H147.924V1222.72ZM148.776 1215.17H156.828V1215.98H148.776V1215.17ZM148.8 1219.75H156.816V1220.57H148.8V1219.75ZM150.468 1215.92H151.464V1219.84H150.468V1215.92ZM154.164 1215.92H155.148V1219.84H154.164V1215.92ZM160.223 1219.93H167.675V1220.74H160.223V1219.93ZM158.963 1222.72H168.791V1223.54H158.963V1222.72ZM160.223 1215.01H167.555V1215.83H161.231V1220.18H160.223V1215.01ZM160.907 1217.44H167.327V1218.23H160.907V1217.44ZM172.726 1214.78C174.094 1214.78 175.09 1215.59 175.09 1216.78C175.09 1217.96 174.094 1218.78 172.726 1218.78C171.358 1218.78 170.374 1217.96 170.374 1216.78C170.374 1215.59 171.358 1214.78 172.726 1214.78ZM172.726 1215.54C171.874 1215.54 171.262 1216.04 171.262 1216.78C171.262 1217.51 171.874 1218.02 172.726 1218.02C173.578 1218.02 174.19 1217.51 174.19 1216.78C174.19 1216.04 173.578 1215.54 172.726 1215.54ZM178.222 1214.09H179.182V1224.94H178.222V1214.09ZM176.182 1214.33H177.118V1224.37H176.182V1214.33ZM174.154 1221.2H176.518V1221.98H174.154V1221.2ZM172.198 1220.05H173.158V1224.06H172.198V1220.05ZM169.978 1220.45L169.846 1219.62C171.334 1219.62 173.734 1219.6 175.486 1219.33L175.57 1220.06C173.734 1220.42 171.442 1220.45 169.978 1220.45ZM183.933 1214.92C185.505 1214.92 186.633 1216.39 186.633 1218.7C186.633 1221.01 185.505 1222.49 183.933 1222.49C182.349 1222.49 181.233 1221.01 181.233 1218.7C181.233 1216.39 182.349 1214.92 183.933 1214.92ZM183.933 1215.82C182.889 1215.82 182.181 1216.94 182.181 1218.7C182.181 1220.46 182.889 1221.61 183.933 1221.61C184.977 1221.61 185.685 1220.46 185.685 1218.7C185.685 1216.94 184.977 1215.82 183.933 1215.82ZM188.985 1214.08H189.969V1224.95H188.985V1214.08ZM186.309 1218.22H189.417V1219.03H186.309V1218.22ZM195.908 1214.77H196.892C196.892 1217.36 195.584 1219.3 192.668 1220.42L192.2 1219.69C194.792 1218.72 195.908 1217.14 195.908 1215.07V1214.77ZM192.668 1214.77H196.256V1215.59H192.668V1214.77ZM195.812 1216.69V1217.39L192.32 1217.76L192.164 1216.93L195.812 1216.69ZM200.264 1214.09H201.212V1220.11H200.264V1214.09ZM198.548 1216.75H200.588V1217.56H198.548V1216.75ZM197.9 1214.29H198.836V1220.03H197.9V1214.29ZM194.108 1220.58H195.092V1221.84H200.252V1220.58H201.224V1224.79H194.108V1220.58ZM195.092 1222.63V1223.99H200.252V1222.63H195.092ZM207.464 1214.83H208.328V1215.66C208.328 1218.02 206.132 1219.86 203.96 1220.35L203.516 1219.52C205.424 1219.16 207.464 1217.51 207.464 1215.66V1214.83ZM207.644 1214.83H208.508V1215.66C208.508 1217.52 210.56 1219.16 212.456 1219.52L212.012 1220.35C209.852 1219.86 207.644 1218.04 207.644 1215.66V1214.83ZM203.12 1222.66H212.948V1223.47H203.12V1222.66ZM214.147 1220.22H223.951V1221.04H214.147V1220.22ZM215.407 1223.88H222.931V1224.7H215.407V1223.88ZM215.407 1221.79H216.403V1224.29H215.407V1221.79ZM218.551 1218.76H219.535V1220.5H218.551V1218.76ZM215.443 1218.31H222.799V1219.09H215.443V1218.31ZM215.443 1214.48H222.751V1215.28H216.427V1218.61H215.443V1214.48ZM216.139 1216.39H222.463V1217.15H216.139V1216.39ZM233.07 1214.09H234.066V1224.96H233.07V1214.09ZM225.894 1221.42H226.77C228.918 1221.42 230.31 1221.35 231.918 1221.05L232.026 1221.89C230.37 1222.2 228.954 1222.26 226.77 1222.26H225.894V1221.42ZM225.894 1215.12H231.018V1215.95H226.878V1221.73H225.894V1215.12ZM238.913 1215.64H239.705V1217.4C239.705 1219.66 238.325 1221.98 236.633 1222.85L236.057 1222.06C237.605 1221.3 238.913 1219.24 238.913 1217.4V1215.64ZM239.093 1215.64H239.885V1217.4C239.885 1219.12 241.109 1221.05 242.681 1221.79L242.117 1222.58C240.401 1221.73 239.093 1219.55 239.093 1217.4V1215.64ZM236.441 1215.19H242.285V1216.03H236.441V1215.19ZM243.569 1214.09H244.577V1224.94H243.569V1214.09ZM244.337 1218.47H246.353V1219.31H244.337V1218.47ZM255.16 1214.1H256.168V1222.02H255.16V1214.1ZM249.196 1223.88H256.492V1224.7H249.196V1223.88ZM249.196 1221.2H250.18V1224.16H249.196V1221.2ZM250.348 1214.84C251.968 1214.84 253.168 1215.95 253.168 1217.52C253.168 1219.08 251.968 1220.2 250.348 1220.2C248.728 1220.2 247.516 1219.08 247.516 1217.52C247.516 1215.95 248.728 1214.84 250.348 1214.84ZM250.348 1215.71C249.292 1215.71 248.488 1216.45 248.488 1217.52C248.488 1218.58 249.292 1219.32 250.348 1219.32C251.404 1219.32 252.208 1218.58 252.208 1217.52C252.208 1216.45 251.404 1215.71 250.348 1215.71Z" fill="black"/>
<rect x="37" y="1245" width="323.043" height="30" rx="6" fill="#EFEFEF"/>
<path d="M155.8 1254.02H156.616V1255.97C156.616 1258.46 155.272 1260.78 153.496 1261.68L152.884 1260.86C154.492 1260.1 155.8 1258.02 155.8 1255.97V1254.02ZM155.968 1254.02H156.784V1255.97C156.784 1257.95 158.08 1259.94 159.688 1260.68L159.088 1261.48C157.324 1260.61 155.968 1258.38 155.968 1255.97V1254.02ZM160.816 1253.08H161.812V1263.95H160.816V1253.08ZM168.327 1253.83H169.191V1254.66C169.191 1257.02 166.995 1258.86 164.823 1259.35L164.379 1258.52C166.287 1258.16 168.327 1256.51 168.327 1254.66V1253.83ZM168.507 1253.83H169.371V1254.66C169.371 1256.52 171.423 1258.16 173.319 1258.52L172.875 1259.35C170.715 1258.86 168.507 1257.04 168.507 1254.66V1253.83ZM163.983 1261.66H173.811V1262.47H163.983V1261.66ZM179.678 1255.81H181.526V1256.63H179.678V1255.81ZM175.514 1258.15H176.198C177.89 1258.15 178.898 1258.12 180.098 1257.88L180.194 1258.67C178.946 1258.92 177.926 1258.96 176.198 1258.96H175.514V1258.15ZM175.514 1253.8H179.606V1254.6H176.474V1258.63H175.514V1253.8ZM176.174 1255.92H179.174V1256.71H176.174V1255.92ZM183.206 1253.09H184.154V1259.62H183.206V1253.09ZM181.118 1253.27H182.054V1259.51H181.118V1253.27ZM177.038 1260.13H184.154V1263.79H177.038V1260.13ZM183.194 1260.92H178.01V1262.99H183.194V1260.92ZM186.049 1258.81H195.877V1259.63H186.049V1258.81ZM190.537 1259.22H191.533V1261.72H190.537V1259.22ZM187.297 1262.88H194.785V1263.7H187.297V1262.88ZM187.297 1260.76H188.281V1263.19H187.297V1260.76ZM187.357 1253.42H188.341V1254.8H193.585V1253.42H194.581V1257.77H187.357V1253.42ZM188.341 1255.58V1256.96H193.585V1255.58H188.341ZM202.668 1255.36H205.236V1256.18H202.668V1255.36ZM199.8 1253.64H200.616V1254.77C200.616 1256.86 199.452 1258.57 197.628 1259.27L197.112 1258.48C198.744 1257.88 199.8 1256.42 199.8 1254.77V1253.64ZM199.98 1253.64H200.784V1254.82C200.784 1256.3 201.864 1257.7 203.424 1258.25L202.896 1259.03C201.156 1258.37 199.98 1256.72 199.98 1254.82V1253.64ZM198.78 1260.1H206.016V1263.94H205.02V1260.9H198.78V1260.1ZM205.02 1253.09H206.016V1259.5H205.02V1253.09ZM208.703 1253.78H213.755V1258.22H208.703V1253.78ZM212.795 1254.59H209.663V1257.43H212.795V1254.59ZM216.023 1253.09H217.019V1259.32H216.023V1253.09ZM213.083 1260.6H213.935V1260.8C213.935 1262.36 212.003 1263.61 209.807 1263.9L209.471 1263.13C211.355 1262.92 213.083 1261.88 213.083 1260.8V1260.6ZM213.227 1260.6H214.091V1260.8C214.091 1261.85 215.771 1262.9 217.655 1263.13L217.319 1263.9C215.111 1263.6 213.227 1262.33 213.227 1260.8V1260.6ZM209.903 1260.05H217.271V1260.83H209.903V1260.05ZM213.083 1259H214.091V1260.4H213.083V1259ZM224.746 1255.04H227.518V1255.87H224.746V1255.04ZM227.098 1253.09H228.094V1258.68H227.098V1253.09ZM221.11 1259.24H228.094V1261.84H222.118V1263.48H221.146V1261.09H227.11V1260.04H221.11V1259.24ZM221.146 1263H228.502V1263.79H221.146V1263ZM221.878 1253.42H222.694V1254.44C222.694 1256.45 221.494 1258.07 219.682 1258.72L219.166 1257.92C220.798 1257.37 221.878 1256.02 221.878 1254.44V1253.42ZM222.046 1253.42H222.85V1254.44C222.85 1255.86 223.942 1257.17 225.514 1257.68L224.998 1258.46C223.246 1257.84 222.046 1256.28 222.046 1254.44V1253.42ZM234.417 1256.1H236.829V1256.9H234.417V1256.1ZM234.333 1258.82H236.805V1259.63H234.333V1258.82ZM238.473 1253.09H239.433V1263.94H238.473V1253.09ZM236.301 1253.36H237.237V1263.38H236.301V1253.36ZM233.877 1254.46H234.837C234.837 1257.3 233.697 1259.86 230.781 1261.6L230.205 1260.89C232.737 1259.35 233.877 1257.19 233.877 1254.64V1254.46ZM230.685 1254.46H234.273V1255.27H230.685V1254.46Z" fill="black"/>
<rect x="37" y="1284" width="323.043" height="30" rx="6" fill="#EFEFEF"/>
<path d="M145.853 1293.17H152.837V1294H145.853V1293.17ZM144.821 1300.6H154.625V1301.42H144.821V1300.6ZM148.625 1296.72H149.621V1301H148.625V1296.72ZM152.465 1293.17H153.449V1294.25C153.449 1295.59 153.449 1297.08 153.053 1299.28L152.057 1299.14C152.465 1297.07 152.465 1295.54 152.465 1294.25V1293.17ZM157.132 1298.29H158.116V1299.72H163.42V1298.29H164.416V1302.79H157.132V1298.29ZM158.116 1300.51V1301.99H163.42V1300.51H158.116ZM157.108 1292.58H164.092V1293.4H157.108V1292.58ZM155.86 1296.5H165.688V1297.33H155.86V1296.5ZM163.444 1292.58H164.416V1293.37C164.416 1294.26 164.416 1295.28 164.08 1296.73L163.084 1296.74C163.444 1295.29 163.444 1294.26 163.444 1293.37V1292.58ZM170.697 1293.27H171.753V1299.51C171.753 1300.07 171.651 1300.54 171.447 1300.93C171.242 1301.32 170.954 1301.62 170.581 1301.82C170.209 1302.02 169.77 1302.12 169.265 1302.12C168.787 1302.12 168.363 1302.03 167.991 1301.86C167.618 1301.68 167.326 1301.43 167.113 1301.11C166.9 1300.79 166.793 1300.4 166.793 1299.95H167.833C167.833 1300.2 167.894 1300.42 168.016 1300.6C168.141 1300.78 168.312 1300.93 168.528 1301.03C168.743 1301.13 168.989 1301.18 169.265 1301.18C169.569 1301.18 169.827 1301.12 170.04 1300.99C170.253 1300.86 170.415 1300.67 170.526 1300.43C170.64 1300.18 170.697 1299.87 170.697 1299.51V1293.27ZM175.661 1302.15C175.246 1302.15 174.87 1302.08 174.532 1301.92C174.194 1301.76 173.925 1301.53 173.726 1301.23C173.528 1300.93 173.428 1300.57 173.428 1300.14C173.428 1299.77 173.502 1299.46 173.65 1299.23C173.797 1298.99 173.995 1298.81 174.242 1298.68C174.489 1298.54 174.762 1298.44 175.06 1298.38C175.361 1298.31 175.664 1298.26 175.968 1298.22C176.366 1298.16 176.688 1298.13 176.935 1298.1C177.185 1298.07 177.367 1298.03 177.481 1297.96C177.597 1297.89 177.655 1297.78 177.655 1297.62V1297.59C177.655 1297.16 177.54 1296.84 177.31 1296.61C177.083 1296.37 176.738 1296.26 176.275 1296.26C175.795 1296.26 175.418 1296.36 175.145 1296.57C174.873 1296.78 174.681 1297.01 174.57 1297.24L173.616 1296.9C173.786 1296.51 174.013 1296.2 174.297 1295.97C174.584 1295.75 174.897 1295.59 175.235 1295.51C175.576 1295.41 175.911 1295.37 176.241 1295.37C176.451 1295.37 176.692 1295.39 176.965 1295.45C177.241 1295.49 177.506 1295.6 177.762 1295.75C178.02 1295.9 178.235 1296.13 178.405 1296.44C178.576 1296.75 178.661 1297.17 178.661 1297.69V1302H177.655V1301.11H177.604C177.536 1301.26 177.422 1301.41 177.263 1301.57C177.104 1301.73 176.893 1301.87 176.628 1301.98C176.364 1302.1 176.042 1302.15 175.661 1302.15ZM175.814 1301.25C176.212 1301.25 176.547 1301.17 176.82 1301.02C177.096 1300.86 177.303 1300.66 177.442 1300.41C177.584 1300.16 177.655 1299.9 177.655 1299.63V1298.71C177.613 1298.76 177.519 1298.81 177.374 1298.85C177.232 1298.89 177.067 1298.93 176.88 1298.96C176.695 1298.99 176.515 1299.01 176.339 1299.03C176.165 1299.05 176.025 1299.07 175.917 1299.09C175.655 1299.12 175.411 1299.17 175.184 1299.25C174.959 1299.33 174.778 1299.44 174.638 1299.59C174.502 1299.74 174.434 1299.94 174.434 1300.19C174.434 1300.54 174.563 1300.81 174.822 1300.99C175.083 1301.16 175.414 1301.25 175.814 1301.25ZM185.615 1295.45L183.194 1302H182.171L179.751 1295.45H180.842L182.649 1300.67H182.717L184.524 1295.45H185.615ZM188.669 1302.15C188.254 1302.15 187.878 1302.08 187.54 1301.92C187.202 1301.76 186.933 1301.53 186.734 1301.23C186.535 1300.93 186.436 1300.57 186.436 1300.14C186.436 1299.77 186.51 1299.46 186.657 1299.23C186.805 1298.99 187.003 1298.81 187.25 1298.68C187.497 1298.54 187.77 1298.44 188.068 1298.38C188.369 1298.31 188.672 1298.26 188.976 1298.22C189.373 1298.16 189.696 1298.13 189.943 1298.1C190.193 1298.07 190.375 1298.03 190.488 1297.96C190.605 1297.89 190.663 1297.78 190.663 1297.62V1297.59C190.663 1297.16 190.548 1296.84 190.318 1296.61C190.091 1296.37 189.746 1296.26 189.282 1296.26C188.802 1296.26 188.426 1296.36 188.153 1296.57C187.881 1296.78 187.689 1297.01 187.578 1297.24L186.623 1296.9C186.794 1296.51 187.021 1296.2 187.305 1295.97C187.592 1295.75 187.905 1295.59 188.243 1295.51C188.584 1295.41 188.919 1295.37 189.248 1295.37C189.459 1295.37 189.7 1295.39 189.973 1295.45C190.248 1295.49 190.514 1295.6 190.77 1295.75C191.028 1295.9 191.243 1296.13 191.413 1296.44C191.584 1296.75 191.669 1297.17 191.669 1297.69V1302H190.663V1301.11H190.612C190.544 1301.26 190.43 1301.41 190.271 1301.57C190.112 1301.73 189.9 1301.87 189.636 1301.98C189.372 1302.1 189.05 1302.15 188.669 1302.15ZM188.822 1301.25C189.22 1301.25 189.555 1301.17 189.828 1301.02C190.104 1300.86 190.311 1300.66 190.45 1300.41C190.592 1300.16 190.663 1299.9 190.663 1299.63V1298.71C190.621 1298.76 190.527 1298.81 190.382 1298.85C190.24 1298.89 190.075 1298.93 189.888 1298.96C189.703 1298.99 189.523 1299.01 189.346 1299.03C189.173 1299.05 189.032 1299.07 188.925 1299.09C188.663 1299.12 188.419 1299.17 188.192 1299.25C187.967 1299.33 187.785 1299.44 187.646 1299.59C187.51 1299.74 187.442 1299.94 187.442 1300.19C187.442 1300.54 187.571 1300.81 187.829 1300.99C188.091 1301.16 188.422 1301.25 188.822 1301.25ZM193.184 1300.72H203.012V1301.54H193.184V1300.72ZM194.036 1293.17H202.088V1293.98H194.036V1293.17ZM194.06 1297.75H202.076V1298.57H194.06V1297.75ZM195.728 1293.92H196.724V1297.84H195.728V1293.92ZM199.424 1293.92H200.408V1297.84H199.424V1293.92ZM204.223 1300.78H214.051V1301.6H204.223V1300.78ZM208.615 1298.45H209.611V1301.12H208.615V1298.45ZM205.411 1292.89H212.839V1296.18H206.431V1298.35H205.447V1295.38H211.855V1293.7H205.411V1292.89ZM205.447 1297.93H213.091V1298.75H205.447V1297.93ZM216.318 1293.24H223.302V1294.04H216.318V1293.24ZM215.262 1300.52H225.066V1301.35H215.262V1300.52ZM222.774 1293.24H223.746V1294.32C223.746 1295.71 223.746 1297.26 223.338 1299.6L222.342 1299.5C222.774 1297.28 222.774 1295.66 222.774 1294.32V1293.24ZM226.649 1299.52H227.369C228.689 1299.52 229.889 1299.47 231.353 1299.22L231.437 1300.04C229.937 1300.31 228.713 1300.34 227.369 1300.34H226.649V1299.52ZM226.625 1293.26H230.693V1297.08H227.621V1299.83H226.649V1296.26H229.721V1294.08H226.625V1293.26ZM234.545 1292.09H235.505V1302.94H234.545V1292.09ZM232.709 1296.37H234.797V1297.19H232.709V1296.37ZM232.085 1292.33H233.021V1302.38H232.085V1292.33ZM237.904 1292.88H242.956V1297.61H237.904V1292.88ZM241.996 1293.68H238.864V1296.8H241.996V1293.68ZM245.224 1292.1H246.232V1298.57H245.224V1292.1ZM242.644 1298.76C244.888 1298.76 246.292 1299.53 246.292 1300.84C246.292 1302.16 244.888 1302.91 242.644 1302.91C240.4 1302.91 239.008 1302.16 239.008 1300.84C239.008 1299.53 240.4 1298.76 242.644 1298.76ZM242.644 1299.55C241 1299.55 239.992 1300.03 239.992 1300.84C239.992 1301.64 241 1302.13 242.644 1302.13C244.288 1302.13 245.296 1301.64 245.296 1300.84C245.296 1300.03 244.288 1299.55 242.644 1299.55Z" fill="black"/>
<path d="M17 1133C17 1129.69 19.6863 1127 23 1127H370.881C374.195 1127 376.881 1129.69 376.881 1133V1154H17V1133Z" fill="#9AC1D1"/>
<path d="M165.316 1143.06V1142.12L169.47 1135.55H170.154V1137H169.692L166.553 1141.97V1142.05H172.148V1143.06H165.316ZM169.766 1145V1142.77V1142.34V1135.55H170.855V1145H169.766ZM173.575 1135.5H180.517V1136.38H173.575V1135.5ZM177.046 1136.98C178.71 1136.98 179.854 1137.81 179.854 1139.11C179.854 1140.4 178.71 1141.22 177.046 1141.22C175.356 1141.22 174.225 1140.4 174.225 1139.11C174.225 1137.81 175.356 1136.98 177.046 1136.98ZM177.046 1137.82C175.967 1137.82 175.252 1138.32 175.252 1139.11C175.252 1139.88 175.967 1140.38 177.046 1140.38C178.099 1140.38 178.827 1139.88 178.827 1139.11C178.827 1138.32 178.099 1137.82 177.046 1137.82ZM181.583 1134.26H182.662V1141.61H181.583V1134.26ZM182.363 1137.5H184.404V1138.4H182.363V1137.5ZM175.031 1142.24H182.662V1146.01H181.583V1143.13H175.031V1142.24ZM176.5 1134.2H177.579V1135.99H176.5V1134.2ZM194.088 1134.26H195.167V1142.97H194.088V1134.26ZM190.773 1135.8H194.491V1136.67H190.773V1135.8ZM187.653 1144.87H195.479V1145.75H187.653V1144.87ZM187.653 1142.22H188.732V1145.27H187.653V1142.22ZM186.184 1135.12H187.263V1140.66H186.184V1135.12ZM186.184 1140.32H187.068C188.745 1140.32 190.318 1140.23 192.151 1139.9L192.255 1140.8C190.37 1141.14 188.797 1141.22 187.068 1141.22H186.184V1140.32ZM190.773 1138.03H194.491V1138.92H190.773V1138.03ZM204.776 1135.55V1145H203.631V1136.75H203.576L201.268 1138.28V1137.12L203.631 1135.55H204.776ZM207.193 1135.5H214.135V1136.38H207.193V1135.5ZM210.664 1136.98C212.328 1136.98 213.472 1137.81 213.472 1139.11C213.472 1140.4 212.328 1141.22 210.664 1141.22C208.974 1141.22 207.843 1140.4 207.843 1139.11C207.843 1137.81 208.974 1136.98 210.664 1136.98ZM210.664 1137.82C209.585 1137.82 208.87 1138.32 208.87 1139.11C208.87 1139.88 209.585 1140.38 210.664 1140.38C211.717 1140.38 212.445 1139.88 212.445 1139.11C212.445 1138.32 211.717 1137.82 210.664 1137.82ZM215.201 1134.26H216.28V1141.61H215.201V1134.26ZM215.981 1137.5H218.022V1138.4H215.981V1137.5ZM208.649 1142.24H216.28V1146.01H215.201V1143.13H208.649V1142.24ZM210.118 1134.2H211.197V1135.99H210.118V1134.2ZM227.68 1134.26H228.759V1146.01H227.68V1134.26ZM224.235 1135.52H225.301C225.301 1138.93 223.767 1141.91 219.841 1143.83L219.269 1142.96C222.662 1141.32 224.235 1138.82 224.235 1135.7V1135.52ZM219.802 1135.52H224.703V1136.41H219.802V1135.52Z" fill="white"/>
</svg>
