<svg width="20" height="19" viewBox="0 0 20 19" fill="none" xmlns="http://www.w3.org/2000/svg">
<mask id="path-1-inside-1_289_70" fill="white">
<ellipse cx="6.69213" cy="6.51398" rx="6.69213" ry="6.51398" transform="matrix(0.967886 0.251389 -0.266437 0.963852 4.05664 0)"/>
</mask>
<ellipse cx="6.69213" cy="6.51398" rx="6.69213" ry="6.51398" transform="matrix(0.967886 0.251389 -0.266437 0.963852 4.05664 0)" fill="white"/>
<path d="M4.62876 6.87789C5.36291 4.22205 7.96337 3.10969 9.99353 3.63698L4.13192 24.8417C13.3166 27.2273 23.2711 21.9993 25.9223 12.4084L4.62876 6.87789ZM9.99353 3.63698C12.0237 4.16428 13.702 6.38795 12.9678 9.04379L-8.32567 3.51324C-10.9769 13.1041 -5.05277 22.4562 4.13192 24.8417L9.99353 3.63698ZM12.9678 9.04379C12.2337 11.6996 9.63321 12.812 7.60305 12.2847L13.4647 -8.92005C4.27997 -11.3056 -5.67447 -6.07765 -8.32567 3.51324L12.9678 9.04379ZM7.60305 12.2847C5.57289 11.7574 3.89461 9.53373 4.62876 6.87789L25.9223 12.4084C28.5735 2.81754 22.6494 -6.53452 13.4647 -8.92005L7.60305 12.2847Z" fill="black" mask="url(#path-1-inside-1_289_70)"/>
<line y1="-1.5" x2="7.364" y2="-1.5" transform="matrix(0.666883 0.735554 -0.766746 0.653167 11.084 13.2134)" stroke="black" stroke-width="3"/>
</svg>
