<svg width="228" height="42" viewBox="0 0 228 42" fill="none" xmlns="http://www.w3.org/2000/svg">
<path d="M3.09609 30.05C3.99609 30.85 4.99609 31.5 6.09609 32.1C7.14609 32.7 8.29609 33.25 9.49609 33.65C10.6961 34.1 11.9461 34.4 13.2461 34.6C14.4961 34.85 15.7961 34.95 17.0961 34.9C19.0961 34.9 20.7461 34.5 22.0461 33.75C23.2961 33.05 23.9461 31.85 23.9461 30.25C23.9461 28.45 23.2961 27.1 22.0461 26.15C20.7461 25.25 18.8961 24.55 16.4461 23.95C13.9461 23.45 11.7461 22.8 9.84609 22.05C7.89609 21.35 6.29609 20.45 4.99609 19.45C3.69609 18.45 2.69609 17.3 2.04609 15.95C1.34609 14.65 1.04609 13.1 1.04609 11.3C1.04609 9.4 1.44609 7.75 2.24609 6.35C3.04609 5 4.09609 3.85 5.49609 2.9C6.84609 2 8.39609 1.3 10.1961 0.799999C11.9461 0.399998 13.7961 0.149999 15.7961 0.149999C18.4461 0.149999 20.9961 0.599999 23.3961 1.4C25.7961 2.3 28.1961 3.45 30.5961 4.95L27.6461 10.9C26.0461 9.75 24.1961 8.8 22.1961 8C20.1461 7.25 18.0961 6.85 16.0961 6.75C15.2461 6.75 14.3961 6.8 13.5961 6.9C12.6961 7.05 11.9461 7.3 11.2961 7.6C10.5961 7.95 9.99609 8.4 9.59609 8.95C9.14609 9.55 8.94609 10.25 8.94609 11.05C8.94609 11.8 9.04609 12.45 9.29609 12.95C9.49609 13.55 9.94609 14.05 10.5461 14.45C11.1461 14.95 11.9461 15.35 12.9461 15.75C13.9461 16.15 15.1961 16.55 16.7961 16.95C19.5461 17.7 21.8961 18.45 23.8461 19.25C25.7461 20.1 27.2961 21 28.4961 22C29.6461 23.05 30.4961 24.2 31.0461 25.5C31.5461 26.8 31.8461 28.35 31.8461 30.05C31.8461 31.95 31.4461 33.55 30.6461 34.95C29.8461 36.35 28.7461 37.55 27.3961 38.55C25.9961 39.5 24.3961 40.25 22.5461 40.75C20.6461 41.25 18.5961 41.5 16.4961 41.5C13.4461 41.5 10.5461 40.95 7.74609 39.95C4.89609 38.9 2.34609 37.6 0.0460939 36L3.09609 30.05ZM61.3113 40.5L46.0113 22.55V40.5H38.1113V1.15H46.0113V17.45L61.1613 1.15H70.2113L52.7613 20L70.3613 40.5H61.3113ZM101.522 40.5V20.35L83.0719 25.4V40.5H75.1719V1.15H83.0719V19.4L101.522 14.35V1.15H109.422V40.5H101.522ZM134.02 41.5C131.62 41.5 129.37 41.1 127.32 40.35C125.22 39.55 123.37 38.5 121.87 37.15C120.32 35.75 119.12 34.1 118.27 32.1C117.37 30.2 116.92 28 116.92 25.6V1.15H124.82V25.1C124.82 26.5 125.02 27.75 125.42 28.95C125.82 30.2 126.37 31.25 127.17 32.15C127.92 33.05 128.87 33.8 130.07 34.3C131.17 34.85 132.52 35.1 134.02 35.1C135.52 35.1 136.82 34.85 138.02 34.3C139.12 33.8 140.12 33.05 140.92 32.15C141.67 31.25 142.27 30.2 142.67 28.95C143.07 27.75 143.27 26.5 143.27 25.1V1.15H151.17V25.6C151.17 28 150.72 30.2 149.87 32.1C148.97 34.1 147.72 35.75 146.22 37.15C144.62 38.5 142.82 39.55 140.77 40.35C138.67 41.1 136.42 41.5 134.02 41.5Z" fill="black"/>
<path d="M156.418 40.5L170.918 1.15H179.568L194.068 40.5H186.218L181.718 27.85L167.368 31.75L164.268 40.5H156.418ZM169.768 25.1L179.768 22.4L175.218 9.7L169.768 25.1Z" fill="#009FE0"/>
<path d="M198.049 40.5V35L218.049 7.25H198.999V1.15H226.949V6.1L206.549 34.4H227.749V40.5H198.049Z" fill="#ED7A7A"/>
</svg>
