<svg width="56" height="56" viewBox="0 0 56 56" fill="none" xmlns="http://www.w3.org/2000/svg">
<circle cx="28" cy="28" r="28" fill="black"/>
<path d="M19.6039 18.63H20.8739V27.89H19.6039V18.63ZM18.3939 22.2H19.9339V23.26H18.3939V22.2ZM17.5339 18.79H18.7739V27.45H17.5339V18.79ZM13.3039 19.65H14.6339V25H13.3039V19.65ZM13.3039 24.5H13.9439C14.8339 24.5 15.8739 24.45 17.0239 24.23L17.1539 25.37C15.9439 25.59 14.8839 25.64 13.9439 25.64H13.3039V24.5ZM28.0632 18.62H29.4032V27.88H28.0632V18.62ZM29.0532 22.16H30.6832V23.25H29.0532V22.16ZM25.6332 19.58H26.9332C26.9332 22.36 25.8732 24.74 22.7932 26.29L22.0532 25.28C24.4832 24.02 25.6332 22.32 25.6332 19.81V19.58ZM22.5632 19.58H26.3132V20.65H22.5632V19.58ZM33.6568 23.27H42.0368V24.33H33.6568V23.27ZM35.4168 18.95H36.4168V19.63C36.4168 20.97 35.8168 22.22 34.3268 22.7L33.7268 21.74C34.9368 21.35 35.4168 20.47 35.4168 19.63V18.95ZM35.7468 18.95H36.7368V19.63C36.7368 20.45 37.2068 21.36 38.3368 21.8L37.8368 22.83C36.2968 22.32 35.7468 20.93 35.7468 19.63V18.95ZM38.9368 18.95H39.9368V19.63C39.9368 20.95 39.3768 22.32 37.8368 22.83L37.3368 21.8C38.4768 21.37 38.9368 20.46 38.9368 19.63V18.95ZM39.2768 18.95H40.2768V19.63C40.2768 20.5 40.7568 21.37 41.9668 21.74L41.3668 22.71C39.8668 22.23 39.2768 21.01 39.2768 19.63V18.95ZM34.6268 26.67H41.1568V27.73H34.6268V26.67ZM34.6268 24.94H35.9568V26.91H34.6268V24.94ZM13.9739 31H19.8439V32.05H13.9739V31ZM12.9539 33.89H21.3339V34.94H12.9539V33.89ZM19.0439 31H20.3539V31.63C20.3539 32.29 20.3539 33.13 20.1139 34.2L18.8039 34.08C19.0439 33.03 19.0439 32.28 19.0439 31.63V31ZM13.8839 35.57H20.3239V38.18H15.2239V39.12H13.8939V37.2H19.0039V36.6H13.8839V35.57ZM13.8939 38.8H20.5639V39.83H13.8939V38.8ZM24.4676 37.74H32.8476V38.82H24.4676V37.74ZM27.9776 35.76H29.3076V38H27.9776V35.76ZM25.3476 31.22H26.6676V32.64H30.6176V31.22H31.9376V36.04H25.3476V31.22ZM26.6676 33.68V34.98H30.6176V33.68H26.6676ZM40.0368 30.63H41.3768V39.89H40.0368V30.63ZM37.3068 31.59H38.6268C38.6268 34.42 37.6668 36.74 34.3768 38.33L33.6868 37.27C36.3468 35.99 37.3068 34.31 37.3068 31.83V31.59ZM34.1768 31.59H37.9368V32.64H34.1768V31.59Z" fill="white"/>
</svg>
